<svg xmlns="http://www.w3.org/2000/svg" width="375" height="666" viewBox="0 0 375 666" version="1.1"><path d="M 198 86 L 198 135 236.500 135 L 275 135 275 97.099 L 275 59.198 270.322 52.849 C 267.748 49.357, 264.056 44.362, 262.116 41.750 L 258.589 37 228.295 37 L 198 37 198 86 M 200 86.512 L 200 133.025 236.750 132.762 L 273.500 132.500 273.763 97.250 L 274.026 62 265.513 62 L 257 62 257 51 L 257 40 228.500 40 L 200 40 200 86.512 M 259 51 L 259 60 265.986 60 L 272.973 60 266.392 51 C 262.772 46.050, 259.628 42, 259.405 42 C 259.182 42, 259 46.050, 259 51 M 63.214 54.473 C 58.278 58.626, 56.938 67.630, 59.623 78.586 C 60.062 80.377, 59.062 81.139, 52.543 83.981 C 44.745 87.381, 39.552 91.954, 38.435 96.403 C 37.676 99.429, 41.472 107.049, 44.079 107.731 C 45.135 108.007, 46 108.554, 46 108.946 C 46 109.338, 48.362 110.686, 51.250 111.942 C 60.632 116.024, 59.874 114.660, 58.511 125 C 57.607 131.856, 59.177 138.086, 62.694 141.603 C 64.990 143.899, 65.924 144.166, 70.229 143.752 C 74.053 143.385, 76.809 142.142, 82.660 138.150 L 90.177 133.020 95.839 137.346 C 104.972 144.325, 112.896 146.005, 116.621 141.750 C 121.214 136.504, 122.305 130.862, 120.740 120.438 L 119.981 115.376 126.738 112.438 C 135.838 108.481, 141 103.302, 141 98.129 C 141 94.933, 140.306 93.583, 137.019 90.379 C 134.829 88.246, 130.216 85.340, 126.769 83.921 L 120.500 81.343 120.858 71.844 C 121.167 63.656, 120.920 61.763, 119.068 58.132 C 117.886 55.816, 115.783 53.402, 114.394 52.770 C 110.652 51.065, 103.899 53.217, 96.282 58.542 C 92.774 60.994, 89.653 63, 89.346 63 C 89.039 63, 87.102 61.665, 85.041 60.033 C 79.989 56.031, 71.779 52, 68.681 52 C 67.291 52, 64.831 53.113, 63.214 54.473 M 64.573 57.570 C 63.709 58.433, 62.719 60.270, 62.373 61.650 C 61.552 64.921, 62.486 77.886, 63.624 79.024 C 64.132 79.532, 67.433 79.404, 71.420 78.721 C 78.115 77.574, 78.470 77.364, 82.594 72.109 C 86.720 66.853, 86.801 66.611, 85.177 64.404 C 82.986 61.428, 72.494 56, 68.931 56 C 67.398 56, 65.436 56.706, 64.573 57.570 M 103.467 58.034 C 101.249 59.125, 97.749 61.407, 95.688 63.105 L 91.942 66.193 95.388 70.008 C 97.284 72.106, 99.293 74.678, 99.852 75.724 C 100.604 77.128, 102.779 77.921, 108.185 78.759 C 112.208 79.382, 115.868 79.527, 116.317 79.079 C 116.766 78.632, 117.359 74.944, 117.635 70.883 C 118.297 61.121, 116.249 56.612, 111 56.275 C 109.075 56.151, 105.685 56.943, 103.467 58.034 M 86.118 72.851 C 83.319 76.385, 83.104 77.011, 84.666 77.076 C 85.675 77.117, 88.191 77.254, 90.257 77.381 C 95.909 77.725, 96.387 76.781, 92.716 72.534 L 89.404 68.702 86.118 72.851 M 245.500 74.919 C 239.092 76.486, 236 79.446, 236 84.011 C 236 87.336, 241.188 91.847, 245.873 92.596 C 250.991 93.414, 253.527 95.184, 252.694 97.355 C 251.796 99.696, 244.885 99.492, 239.960 96.980 L 236 94.959 236 98.980 C 236 101.191, 236.164 103, 236.364 103 C 236.563 103, 239.033 103.437, 241.852 103.972 C 252.340 105.961, 261 101.928, 261 95.055 C 261 90.565, 258.129 88.012, 250.974 86.142 C 245.766 84.780, 244.500 84.063, 244.500 82.474 C 244.500 80.823, 245.292 80.450, 249.337 80.192 C 252.485 79.991, 255.003 80.427, 256.551 81.442 C 259.812 83.578, 260 83.477, 260 79.579 C 260 76.574, 259.636 76.089, 257 75.579 C 250.566 74.337, 248.391 74.212, 245.500 74.919 M 216 77.500 C 216 79.690, 216.433 80, 219.500 80 L 223 80 223 88.378 C 223 98.220, 222.102 99.545, 215.990 98.726 C 212.129 98.208, 212 98.285, 212 101.095 L 212 104 218.444 104 C 223.812 104, 225.357 103.597, 227.694 101.589 C 230.439 99.230, 230.507 98.914, 230.834 87.089 L 231.167 75 223.584 75 C 216.161 75, 216 75.053, 216 77.500 M 78.196 83.750 C 75.167 88.044, 70.997 96.746, 71.025 98.717 C 71.038 99.698, 72.958 103.650, 75.290 107.500 L 79.530 114.500 89.652 114.784 L 99.773 115.067 104.387 107.315 C 106.924 103.052, 109 98.961, 109 98.224 C 109 96.949, 106.979 93.038, 102.038 84.750 L 99.802 81 89.969 81 C 80.379 81, 80.088 81.068, 78.196 83.750 M 67.750 82.716 C 64.598 83.194, 64.362 84.538, 66.523 89.709 C 68.219 93.769, 68.516 93.620, 72.462 86.750 L 75.190 82 72.845 82.150 C 71.555 82.232, 69.263 82.487, 67.750 82.716 M 105 82.372 C 105 83.496, 110.482 92.971, 111.141 92.986 C 112.260 93.011, 115.138 84.738, 114.301 83.903 C 113.289 82.891, 105 81.527, 105 82.372 M 53.435 86.890 C 46.772 89.917, 42.001 94.696, 41.994 98.354 C 41.985 102.386, 47.310 107.213, 54.912 110.063 C 61.075 112.375, 60.845 112.523, 63.995 104.212 C 66.386 97.908, 66.424 97.164, 64.561 93.404 C 63.770 91.807, 62.656 89.263, 62.086 87.750 C 60.868 84.517, 59.055 84.337, 53.435 86.890 M 116.957 88.750 C 116.298 90.813, 115.363 92.927, 114.879 93.450 C 113.387 95.063, 113.897 99.310, 116.332 105.536 C 118.986 112.321, 119.327 112.407, 127.704 108.392 C 133.068 105.821, 138 101, 138 98.328 C 138 95.280, 133.818 91.065, 127.821 88.068 C 119.755 84.038, 118.436 84.120, 116.957 88.750 M 84.495 91.273 C 80.760 94.519, 80.250 99.707, 83.301 103.432 C 88.468 109.741, 99.330 105.772, 98.168 98 C 97.490 93.465, 96.762 91.943, 94.759 90.871 C 90.816 88.761, 87.224 88.901, 84.495 91.273 M 67.110 104.795 C 66.518 105.900, 65.914 108.311, 65.767 110.152 C 65.501 113.487, 65.519 113.501, 70.326 113.808 L 75.152 114.116 72.412 109.308 C 68.689 102.778, 68.346 102.486, 67.110 104.795 M 107.690 108.122 C 106.145 110.923, 105.112 113.445, 105.394 113.728 C 106.236 114.569, 115 112.956, 115 111.959 C 115 110.380, 111.816 102.999, 111.141 103.014 C 110.789 103.022, 109.236 105.321, 107.690 108.122 M 112.500 117.057 C 110.850 117.446, 107.850 117.817, 105.834 117.882 C 102.773 117.980, 101.620 118.701, 98.848 122.250 C 97.023 124.588, 94.960 127.095, 94.264 127.821 C 92.408 129.762, 92.666 130.541, 96.134 133.459 C 101.224 137.742, 106.778 140.142, 110.820 139.806 C 116.271 139.353, 118.303 134.972, 117.635 125.117 C 117.359 121.056, 116.766 117.423, 116.317 117.043 C 115.868 116.662, 114.150 116.669, 112.500 117.057 M 62.634 120.078 C 61.516 125.669, 61.954 134.011, 63.526 137.050 C 64.839 139.589, 65.622 140, 69.154 140 C 73.486 140, 82.031 135.833, 85.453 132.052 C 87.231 130.087, 87.173 129.909, 82.992 124.489 C 80.636 121.436, 78.437 118.785, 78.105 118.598 C 77.772 118.411, 74.298 117.954, 70.384 117.582 L 63.269 116.905 62.634 120.078 M 84 119.984 C 84 120.526, 85.349 122.438, 86.998 124.234 L 89.996 127.500 92.971 124 C 94.607 122.075, 95.958 120.162, 95.973 119.750 C 95.988 119.338, 93.300 119, 90 119 C 86.700 119, 84 119.443, 84 119.984 M 259.595 170.162 C 260.643 171.352, 262.563 173.489, 263.861 174.912 C 278.390 190.834, 280.407 192.781, 281.810 192.243 C 282.774 191.873, 283.074 192.071, 282.632 192.786 C 281.862 194.032, 283.400 196.043, 293.069 206.438 C 296.682 210.322, 301.810 215.867, 304.465 218.760 C 307.120 221.653, 309.968 223.903, 310.793 223.760 C 311.618 223.617, 312.486 224.175, 312.722 225 C 313.104 226.333, 313.024 226.333, 312 225 C 310.976 223.667, 310.896 223.667, 311.281 225 C 311.520 225.825, 312.449 226.438, 313.347 226.363 C 314.244 226.288, 314.751 226.594, 314.473 227.044 C 314.195 227.494, 314.475 228.176, 315.095 228.559 C 315.716 228.942, 316.588 228.667, 317.033 227.947 C 318.104 226.214, 317.932 214.924, 316.845 215.596 C 316.380 215.883, 316 216.841, 316 217.726 C 316 218.610, 315.714 219.048, 315.365 218.699 C 315.016 218.350, 315.290 216.715, 315.973 215.065 C 317.688 210.926, 315.785 203.368, 311.382 196.825 C 309.522 194.061, 308 191.488, 308 191.108 C 308 189.773, 295.972 178.899, 295.096 179.441 C 294.608 179.742, 293.954 179.324, 293.643 178.511 C 293.322 177.675, 292.411 177.289, 291.544 177.622 C 290.701 177.945, 290.303 178.682, 290.660 179.259 C 291.048 179.887, 290.826 180.010, 290.106 179.565 C 289.271 179.049, 289.216 178.444, 289.929 177.586 C 290.688 176.671, 290.053 175.919, 287.495 174.699 C 285.592 173.792, 283.380 173.301, 282.578 173.608 C 281.777 173.916, 280.307 173.658, 279.311 173.036 C 277.741 172.055, 277.833 171.984, 280 172.500 C 282.178 173.019, 282.265 172.949, 280.678 171.958 C 279.675 171.332, 277.725 171.103, 276.344 171.450 C 274.886 171.816, 274.075 171.688, 274.410 171.146 C 274.727 170.633, 273.977 170.190, 272.743 170.163 C 271.510 170.135, 268.925 169.859, 267 169.549 C 264.652 169.170, 264.141 169.261, 265.446 169.824 C 267.312 170.629, 267.302 170.688, 265.195 171.239 C 263.986 171.555, 263.250 171.405, 263.559 170.905 C 263.868 170.405, 262.939 169.547, 261.495 168.998 C 257.729 167.566, 257.456 167.734, 259.595 170.162 M 288.429 182.114 C 288.429 184.332, 289.552 184.610, 290.330 182.583 C 290.629 181.803, 290.324 180.954, 289.651 180.696 C 288.954 180.429, 288.429 181.038, 288.429 182.114 M 295.017 182.479 C 294.130 183.548, 294.275 183.780, 295.694 183.561 C 296.687 183.408, 297.831 183.782, 298.235 184.392 C 298.700 185.094, 298.975 184.898, 298.985 183.857 C 299.005 181.667, 296.433 180.773, 295.017 182.479 M 139.832 189.998 C 140.122 196.118, 140.406 197, 142.082 197 C 143.333 197, 144 196.305, 144 195 C 144 193.533, 144.667 193, 146.500 193 C 148.333 193, 149 193.533, 149 195 C 149 196.333, 149.667 197, 151 197 C 152.810 197, 153 196.333, 153 190 C 153 183.667, 152.810 183, 151 183 C 149.533 183, 149 183.667, 149 185.500 C 149 187.500, 148.500 188, 146.500 188 C 144.500 188, 144 187.500, 144 185.500 C 144 183.575, 143.483 182.999, 141.750 182.998 C 139.599 182.996, 139.515 183.304, 139.832 189.998 M 156 185.500 C 156 187.333, 156.533 188, 158 188 C 159.704 188, 160 188.667, 160 192.500 C 160 196.633, 160.204 197, 162.500 197 C 164.796 197, 165 196.633, 165 192.500 C 165 188.667, 165.296 188, 167 188 C 168.467 188, 169 187.333, 169 185.500 C 169 183.090, 168.767 183, 162.500 183 C 156.233 183, 156 183.090, 156 185.500 M 171 190 C 171 196.800, 171.071 197, 173.500 197 C 175.648 197, 176.004 196.542, 176.030 193.750 C 176.058 190.824, 176.172 190.699, 177.178 192.500 C 178.915 195.610, 179.019 195.623, 181.046 192.985 L 182.956 190.500 182.978 193.750 C 182.995 196.326, 183.415 197, 185 197 C 186.810 197, 187 196.333, 187 190 C 187 183.391, 186.873 183, 184.732 183 C 183.349 183, 181.835 184.035, 180.854 185.652 L 179.245 188.304 177.508 185.652 C 176.432 184.010, 174.862 183, 173.385 183 C 171.099 183, 171 183.290, 171 190 M 190 190 L 190 197 195.500 197 C 200.273 197, 201 196.744, 201 195.063 C 201 193.609, 200.190 193.049, 197.750 192.813 C 194.634 192.513, 194.487 192.305, 194.195 187.750 C 193.943 183.816, 193.556 183, 191.945 183 C 190.204 183, 190 183.732, 190 190 M 302 191.068 C 302 191.517, 302.961 191.700, 304.135 191.474 C 307.258 190.873, 307.464 190.250, 304.542 190.250 C 303.144 190.250, 302 190.618, 302 191.068 M 304.030 193.342 C 304.014 193.806, 304.900 195.329, 306 196.727 C 307.953 199.210, 308 199.218, 308 197.076 C 308 195.869, 307.578 195.143, 307.061 195.462 C 306.545 195.781, 305.659 195.245, 305.092 194.271 C 304.525 193.297, 304.047 192.879, 304.030 193.342 M 309.658 198.449 C 309.287 199.416, 309.582 199.714, 310.545 199.344 C 311.339 199.040, 311.740 198.388, 311.435 197.895 C 310.669 196.655, 310.303 196.769, 309.658 198.449 M 313.346 205.346 C 313.431 206.805, 313.837 207.999, 314.250 207.999 C 315.266 208, 315.171 205.819, 314.081 204.097 C 313.445 203.093, 313.236 203.448, 313.346 205.346 M 84.807 215.137 C 85.160 217.546, 85.469 217.914, 86.135 216.723 C 86.613 215.870, 86.729 214.458, 86.395 213.586 C 85.347 210.856, 84.325 211.855, 84.807 215.137 M 304.405 216.858 C 306.443 219.150, 307 219.446, 307 218.241 C 307 217.823, 305.988 216.859, 304.750 216.099 C 302.508 214.722, 302.507 214.724, 304.405 216.858 M 71.500 225.592 C 68.200 227.439, 64.952 228.757, 64.282 228.519 C 63.612 228.282, 62.798 228.518, 62.473 229.044 C 60.802 231.747, 69.405 228.835, 75.675 224.575 C 80.911 221.017, 78.717 221.551, 71.500 225.592 M 64 224 C 63.175 224.533, 62.950 224.969, 63.500 224.969 C 64.050 224.969, 65.175 224.533, 66 224 C 66.825 223.467, 67.050 223.031, 66.500 223.031 C 65.950 223.031, 64.825 223.467, 64 224 M 57.401 225.160 C 56.448 226.701, 57.513 227.116, 60.031 226.184 L 62.353 225.325 60.177 224.757 C 58.981 224.444, 57.731 224.625, 57.401 225.160 M 74.411 230.081 C 72.713 231.134, 70.125 232.095, 68.661 232.216 C 67.198 232.337, 66 232.838, 66 233.329 C 66 234.705, 72.649 233.140, 76.529 230.851 C 78.438 229.724, 80 228.622, 80 228.401 C 80 227.480, 77.295 228.293, 74.411 230.081 M 76 236 C 72.975 237.598, 70.852 238.927, 71.283 238.953 C 72.346 239.017, 82 234.090, 82 233.483 C 82 232.815, 82.139 232.757, 76 236 M 59.352 241.250 C 58.733 242.238, 62.955 242.086, 65.500 241.029 C 67.004 240.404, 66.547 240.235, 63.661 240.349 C 61.550 240.432, 59.611 240.838, 59.352 241.250 M 54 313.292 L 54 319.584 58.250 319.445 C 64.664 319.235, 64.854 319.158, 64.290 317 C 63.919 315.583, 62.926 315, 60.883 315 C 58.698 315, 58 314.531, 58 313.063 C 58 311.622, 58.809 311.047, 61.161 310.813 C 63.259 310.605, 64.405 309.912, 64.572 308.750 C 64.785 307.268, 63.994 307, 59.412 307 L 54 307 54 313.292 M 66.414 310.750 C 66.494 314.231, 66.751 314.544, 70 315.108 L 73.500 315.716 69.643 315.858 C 66.567 315.971, 65.909 316.320, 66.393 317.582 C 66.727 318.452, 67 319.352, 67 319.582 C 67 319.812, 69.250 320, 72 320 L 77 320 77 315.563 C 77 311.307, 76.868 311.110, 73.750 310.723 L 70.500 310.320 73.750 310.160 C 75.901 310.054, 77 309.493, 77 308.500 C 77 307.354, 75.740 307, 71.664 307 L 66.327 307 66.414 310.750 M 79 310.937 C 79 314.629, 79.202 314.898, 82.250 315.277 L 85.500 315.680 82.250 315.840 C 79.720 315.965, 79 316.443, 79 318 C 79 319.758, 79.667 320, 84.500 320 L 90 320 90 315.563 C 90 311.307, 89.868 311.110, 86.750 310.723 L 83.500 310.320 86.750 310.160 C 88.901 310.054, 90 309.493, 90 308.500 C 90 307.348, 88.722 307, 84.500 307 L 79 307 79 310.937 M 38.018 327.250 C 38.118 334.258, 44.023 395.423, 44.661 396.061 C 45.127 396.527, 51.538 398.513, 58.907 400.475 L 72.306 404.043 85.352 400.479 C 92.527 398.519, 98.922 396.480, 99.562 395.948 C 100.203 395.416, 101.040 390.598, 101.422 385.241 C 102.132 375.295, 105.487 339.328, 106.505 330.750 L 107.069 326 72.534 326 C 45.564 326, 38.004 326.274, 38.018 327.250 M 162.493 330.023 C 162.139 331.136, 161.943 333.724, 162.056 335.773 C 162.174 337.919, 161.303 341.593, 160.003 344.433 C 158.126 348.533, 157.844 350.429, 158.334 355.669 C 158.657 359.137, 159.502 363.069, 160.211 364.407 C 162.042 367.862, 168.535 372.750, 172.302 373.507 C 179.204 374.894, 179.049 374.752, 177.191 377.990 C 175.697 380.593, 174.274 381.520, 170.250 382.514 C 169.563 382.684, 169 382.365, 169 381.805 C 169 381.244, 168.302 381.054, 167.448 381.382 C 166.594 381.709, 166.140 381.583, 166.437 381.102 C 167.137 379.969, 164.540 377.793, 163.605 378.728 C 163.214 379.119, 163.192 378.663, 163.556 377.714 C 164.063 376.393, 163.348 375.625, 160.501 374.436 C 155.899 372.513, 155.184 373.060, 158.189 376.207 C 159.460 377.537, 161.269 380.064, 162.209 381.822 C 164.102 385.364, 167.375 387, 172.565 387 C 175.969 387, 176 387.040, 176 391.500 C 176 394.667, 175.407 396.593, 174 398 C 172.900 399.100, 172 400.225, 172 400.500 C 172 401.734, 175.999 400.821, 178.121 399.103 C 180.192 397.426, 180.435 396.470, 180.216 390.853 C 180.080 387.359, 180.419 383.825, 180.969 383 C 181.676 381.940, 181.974 383.968, 181.985 389.921 C 181.996 396.381, 181.613 398.770, 180.339 400.177 C 178.171 402.574, 179.322 403.630, 182.516 402.175 C 185.887 400.639, 186.968 397.383, 187.162 388.185 L 187.324 380.500 187.931 389.854 C 188.463 398.059, 188.825 399.440, 190.880 401.104 C 194.046 403.668, 195.417 403.532, 194.455 400.750 C 193.173 397.044, 192.754 381.237, 193.984 383 C 194.560 383.825, 194.928 387.200, 194.801 390.500 C 194.541 397.265, 195.131 398.719, 198.681 400.069 C 202.142 401.385, 203.309 400.309, 200.964 397.964 C 199.328 396.328, 199 394.615, 199 387.723 C 199 381.895, 198.545 378.796, 197.463 377.251 C 196.003 375.166, 196.066 375.026, 198.713 374.438 C 205.450 372.944, 207.863 371.724, 211.549 367.950 L 215.474 363.930 215.487 354.556 C 215.498 346.393, 215.209 344.788, 213.250 342.131 C 211.809 340.178, 211 337.657, 211 335.122 C 211 327.676, 209.008 326.369, 202.700 329.680 C 197.806 332.248, 175.883 332.355, 170.790 329.836 C 165.960 327.446, 163.291 327.507, 162.493 330.023 M 50.393 341.582 C 50.727 342.452, 51 344.477, 51 346.082 L 51 349 67.557 349 L 84.115 349 83.807 353.250 L 83.500 357.500 67.694 357.776 L 51.888 358.051 52.194 362.276 L 52.500 366.500 67.500 366.773 L 82.500 367.047 82.157 372.523 C 81.895 376.714, 81.442 378, 80.228 378 C 79.356 378, 77.197 378.522, 75.432 379.161 C 70.541 380.930, 63.169 378.641, 62.402 375.116 C 61.350 370.280, 61.082 370, 57.500 370 C 53.120 370, 52.639 371.085, 53.688 378.601 L 54.503 384.432 63.001 386.831 L 71.500 389.231 80.735 386.953 C 91.471 384.304, 90.294 386.601, 91.983 365 C 92.563 357.575, 93.313 348.913, 93.648 345.750 L 94.258 340 72.022 340 C 52.157 340, 49.851 340.169, 50.393 341.582 M 169.299 351.503 C 164.708 354.719, 164.360 363.425, 168.634 368.148 C 171.254 371.043, 179.487 373.002, 188.932 372.978 C 202.763 372.943, 209 368.972, 209 360.201 C 209 356.721, 208.413 355.259, 206.077 352.923 L 203.154 350 187.299 350 C 174.811 350, 170.989 350.319, 169.299 351.503 M 126.200 410.200 C 123.812 412.588, 124.868 417.462, 128.961 422.948 C 131.140 425.868, 133.856 431.061, 134.996 434.487 C 136.136 437.914, 138.300 442.693, 139.804 445.109 C 142.364 449.220, 142.463 449.787, 141.350 454 C 139.824 459.774, 139.707 469.403, 141.100 474.421 C 142.117 478.085, 146.816 484.019, 148.673 483.985 C 150.770 483.946, 152.228 481.920, 153.363 477.468 L 154.596 472.635 157.213 477.068 C 159.639 481.177, 167 489.209, 167 487.746 C 167 487.391, 165.630 485.071, 163.956 482.590 C 162.282 480.110, 159.404 474.824, 157.561 470.844 L 154.209 463.608 152.224 466.871 C 151.133 468.666, 149.940 472.393, 149.574 475.152 C 148.982 479.618, 148.732 480.023, 147.299 478.835 C 142.926 475.207, 141.604 462.553, 144.622 453.208 L 146.244 448.186 143.234 444.343 C 141.578 442.229, 139.235 437.456, 138.025 433.735 C 136.816 430.015, 134.066 424.627, 131.914 421.762 C 127.530 415.929, 126.776 412, 130.040 412 C 132.169 412, 139.411 415.322, 142 417.487 C 142.825 418.177, 145.967 419.054, 148.983 419.436 C 158.984 420.703, 172.290 429.816, 180.531 441.043 C 182.558 443.803, 186.566 451.168, 189.438 457.410 C 197.479 474.885, 197.973 475.556, 204.159 477.383 C 207.096 478.251, 210.850 479.872, 212.500 480.986 C 214.150 482.099, 216.963 483.953, 218.750 485.104 C 223.059 487.880, 222.850 489, 218.020 489 C 213.790 489, 206 491.640, 206 493.074 C 206 495.005, 212.244 500.843, 216.716 503.093 C 219.347 504.417, 223.745 507.075, 226.489 509 L 231.479 512.500 227.989 508.128 C 226.070 505.724, 221.940 502.014, 218.812 499.883 C 215.684 497.753, 212.860 495.582, 212.536 495.059 C 211.891 494.015, 218.034 492.023, 222 491.990 C 223.375 491.979, 225.175 491.516, 226 490.961 C 228.306 489.411, 217.840 480.089, 208.499 475.374 L 200.826 471.500 194.814 458.500 C 185.806 439.025, 180.032 431.650, 166.759 422.663 C 159.758 417.923, 154.758 416.015, 149.309 416.006 C 147.554 416.003, 145.835 415.541, 145.488 414.981 C 145.142 414.421, 142.655 412.846, 139.962 411.481 C 134.743 408.836, 128.175 408.225, 126.200 410.200 M 147.555 426.911 C 146.883 427.999, 148.994 432, 150.241 432 C 150.658 432, 151 431.155, 151 430.122 C 151 427.822, 148.457 425.451, 147.555 426.911" stroke="none" fill="#1c6198" fill-rule="evenodd"/><path d="M 200 86.512 L 200 133.025 236.750 132.762 L 273.500 132.500 273.763 97.250 L 274.026 62 265.513 62 L 257 62 257 51 L 257 40 228.500 40 L 200 40 200 86.512 M 259 51 L 259 60 265.986 60 L 272.973 60 266.392 51 C 262.772 46.050, 259.628 42, 259.405 42 C 259.182 42, 259 46.050, 259 51 M 63.420 52.885 C 60.261 54.812, 57.447 59.881, 58.250 62.199 C 58.497 62.915, 59.016 62.094, 59.402 60.376 C 60.285 56.446, 63.886 53.007, 68.185 51.989 C 70.965 51.331, 71.096 51.189, 69 51.106 C 67.625 51.052, 65.114 51.853, 63.420 52.885 M 104.807 52.498 C 101.087 53.866, 96.417 56.808, 92.238 60.418 C 89.988 62.361, 89.960 62.360, 87.238 60.185 C 82.965 56.772, 74.658 52.017, 73 52.035 C 72.175 52.044, 73.716 53.189, 76.425 54.580 C 79.134 55.971, 83.024 58.435, 85.069 60.055 C 87.114 61.675, 89.039 63, 89.346 63 C 89.653 63, 92.774 60.994, 96.282 58.542 C 103.899 53.217, 110.652 51.065, 114.394 52.770 C 115.783 53.402, 117.886 55.816, 119.068 58.132 C 120.920 61.763, 121.167 63.656, 120.858 71.844 L 120.500 81.343 126.769 83.921 C 130.216 85.340, 134.829 88.246, 137.019 90.379 C 140.306 93.583, 141 94.933, 141 98.129 C 141 103.302, 135.838 108.481, 126.738 112.438 L 119.981 115.376 120.626 120.438 C 121.501 127.304, 122.285 127.753, 121.851 121.139 L 121.500 115.778 126.951 113.639 C 130.006 112.440, 134.511 109.493, 137.201 106.934 C 141.499 102.844, 142 101.913, 142 98.012 C 142 94.173, 141.481 93.160, 137.614 89.454 C 135.051 86.998, 130.719 84.279, 127.192 82.911 L 121.158 80.571 121.715 71.964 C 122.375 61.778, 121.155 57.150, 116.857 53.533 C 113.521 50.726, 110.365 50.455, 104.807 52.498 M 64.573 57.570 C 62.687 59.456, 61.646 63.158, 62.295 65.671 C 62.583 66.783, 62.813 66.314, 62.884 64.473 C 63.051 60.120, 65.566 57, 68.908 57 C 71.996 57, 80.273 61.036, 83.697 64.211 L 85.894 66.249 82.697 70.350 C 77.995 76.381, 77.551 76.776, 74.912 77.273 C 72.631 77.703, 72.648 77.735, 75.235 77.864 C 77.443 77.974, 78.828 76.908, 82.412 72.341 C 86.718 66.855, 86.802 66.613, 85.177 64.404 C 82.986 61.428, 72.494 56, 68.931 56 C 67.398 56, 65.436 56.706, 64.573 57.570 M 103.467 58.034 C 101.249 59.125, 97.749 61.407, 95.688 63.105 L 91.942 66.193 95.388 70.008 C 97.284 72.106, 99.338 74.763, 99.953 75.912 C 100.703 77.313, 101.964 77.955, 103.785 77.864 C 105.974 77.754, 106.085 77.646, 104.360 77.309 C 101.604 76.769, 93.833 67.597, 94.550 65.730 C 94.849 64.950, 97.875 62.667, 101.274 60.656 C 108.390 56.446, 113.321 55.862, 115.015 59.029 C 116.626 62.039, 117.268 69.947, 116.271 74.500 C 115.400 78.478, 115.371 78.499, 110.948 78.304 L 106.500 78.109 110.965 79.039 C 113.424 79.551, 115.814 79.586, 116.282 79.118 C 116.751 78.649, 117.359 74.944, 117.635 70.883 C 118.297 61.121, 116.249 56.612, 111 56.275 C 109.075 56.151, 105.685 56.943, 103.467 58.034 M 274.999 96.799 L 275.499 135.500 275.762 97.562 C 275.906 76.696, 275.681 59.281, 275.262 58.861 C 274.843 58.442, 274.725 75.514, 274.999 96.799 M 57.252 67.500 C 57.263 69.700, 57.468 70.482, 57.707 69.238 C 57.946 67.994, 57.937 66.194, 57.687 65.238 C 57.437 64.282, 57.241 65.300, 57.252 67.500 M 62.465 72.923 C 62.730 75.906, 63.328 78.728, 63.795 79.195 C 64.261 79.661, 66.411 79.591, 68.571 79.039 L 72.500 78.036 68.296 78.416 L 64.092 78.797 63.467 74.149 C 62.560 67.396, 61.902 66.592, 62.465 72.923 M 86.118 72.851 C 82.213 77.782, 82.783 78.359, 87.006 73.750 L 89.985 70.500 91.946 73 L 93.907 75.500 89.704 76.100 C 84.871 76.789, 84.987 77.059, 90.257 77.381 C 95.909 77.725, 96.387 76.781, 92.716 72.534 L 89.404 68.702 86.118 72.851 M 58.277 75.822 L 58.829 80.144 54.165 82.099 C 45.816 85.596, 42.916 87.442, 40.209 90.981 C 34.829 98.014, 38.098 106.482, 48.161 111.582 C 50.932 112.986, 53.384 113.950, 53.610 113.724 C 53.836 113.498, 52.216 112.499, 50.010 111.505 C 47.805 110.510, 46 109.367, 46 108.965 C 46 108.562, 45.135 108.007, 44.079 107.731 C 41.472 107.049, 37.676 99.429, 38.435 96.403 C 39.547 91.970, 44.746 87.381, 52.467 84.015 L 59.982 80.738 59.352 76.619 C 58.502 71.064, 57.582 70.382, 58.277 75.822 M 245.500 74.919 C 239.092 76.486, 236 79.446, 236 84.011 C 236 87.336, 241.188 91.847, 245.873 92.596 C 250.991 93.414, 253.527 95.184, 252.694 97.355 C 251.796 99.696, 244.885 99.492, 239.960 96.980 L 236 94.959 236 98.980 C 236 101.191, 236.164 103, 236.364 103 C 236.563 103, 239.033 103.437, 241.852 103.972 C 252.340 105.961, 261 101.928, 261 95.055 C 261 90.565, 258.129 88.012, 250.974 86.142 C 245.766 84.780, 244.500 84.063, 244.500 82.474 C 244.500 80.823, 245.292 80.450, 249.337 80.192 C 252.485 79.991, 255.003 80.427, 256.551 81.442 C 259.812 83.578, 260 83.477, 260 79.579 C 260 76.574, 259.636 76.089, 257 75.579 C 250.566 74.337, 248.391 74.212, 245.500 74.919 M 216 77.500 C 216 79.690, 216.433 80, 219.500 80 L 223 80 223 88.378 C 223 98.220, 222.102 99.545, 215.990 98.726 C 212.129 98.208, 212 98.285, 212 101.095 L 212 104 218.444 104 C 223.812 104, 225.357 103.597, 227.694 101.589 C 230.439 99.230, 230.507 98.914, 230.834 87.089 L 231.167 75 223.584 75 C 216.161 75, 216 75.053, 216 77.500 M 78.196 83.750 C 75.167 88.044, 70.997 96.746, 71.025 98.717 C 71.038 99.698, 72.958 103.650, 75.290 107.500 L 79.530 114.500 89.652 114.784 L 99.773 115.067 104.387 107.315 C 106.924 103.052, 109 98.961, 109 98.224 C 109 96.949, 106.979 93.038, 102.038 84.750 L 99.802 81 89.969 81 C 80.379 81, 80.088 81.068, 78.196 83.750 M 67.750 82.716 C 64.598 83.194, 64.362 84.538, 66.523 89.709 C 68.219 93.769, 68.516 93.620, 72.462 86.750 L 75.190 82 72.845 82.150 C 71.555 82.232, 69.263 82.487, 67.750 82.716 M 77.203 87.313 C 71.181 97.249, 71.142 97.714, 75.651 106.101 L 79.628 113.500 89.316 113.786 L 99.005 114.072 103.017 107.786 C 108.844 98.658, 108.864 98.185, 103.778 89.791 L 99.359 82.500 89.911 82.217 L 80.463 81.933 77.203 87.313 M 105 82.372 C 105 83.496, 110.482 92.971, 111.141 92.986 C 112.260 93.011, 115.138 84.738, 114.301 83.903 C 113.289 82.891, 105 81.527, 105 82.372 M 68.162 83.717 C 66.188 84.093, 65.927 84.578, 66.483 86.831 C 67.556 91.178, 68.602 91.339, 70.864 87.507 C 73.794 82.540, 73.860 82.633, 68.162 83.717 M 108.275 86.885 C 109.499 89.139, 110.739 90.987, 111.031 90.992 C 111.589 91, 114.134 84.796, 113.733 84.405 C 113.605 84.280, 111.824 83.865, 109.775 83.483 L 106.049 82.787 108.275 86.885 M 53.435 86.890 C 49.314 88.762, 42 94.571, 42 95.972 C 42 96.392, 43.680 95.151, 45.734 93.214 C 49.467 89.694, 56.166 86.063, 59.005 86.022 C 61.006 85.993, 65.381 97.224, 64.478 100.069 C 64.110 101.229, 62.944 104.133, 61.887 106.523 L 59.965 110.867 55.542 109.360 C 53.110 108.531, 49.068 105.942, 46.560 103.606 C 44.052 101.271, 41.997 99.842, 41.994 100.430 C 41.981 102.433, 49.483 108.027, 54.912 110.063 C 61.075 112.375, 60.845 112.523, 63.995 104.212 C 66.386 97.908, 66.424 97.164, 64.561 93.404 C 63.770 91.807, 62.656 89.263, 62.086 87.750 C 60.868 84.517, 59.055 84.337, 53.435 86.890 M 116.957 88.750 C 116.298 90.813, 115.363 92.927, 114.879 93.450 C 113.387 95.063, 113.897 99.310, 116.332 105.536 C 118.986 112.321, 119.327 112.407, 127.704 108.392 C 133.068 105.821, 138 101, 138 98.328 C 138 95.280, 133.818 91.065, 127.821 88.068 C 119.755 84.038, 118.436 84.120, 116.957 88.750 M 118.113 88.250 C 114.485 97.994, 114.513 97.740, 116.445 103.245 C 119.261 111.273, 118.895 111.021, 124.618 108.877 C 130.314 106.742, 137 100.899, 137 98.055 C 137 95.731, 130.911 90.318, 125.565 87.890 C 120.264 85.483, 119.123 85.538, 118.113 88.250 M 83.400 91.400 C 79.659 95.141, 79.103 98.364, 81.425 102.855 C 82.975 105.853, 86.738 108, 90.441 108 C 93.033 108, 99.020 102.976, 98.965 100.849 C 98.945 100.107, 98.365 100.516, 97.675 101.759 C 94.450 107.566, 87.362 108.391, 83.301 103.432 C 77.251 96.045, 85.529 86.119, 94.060 90.531 C 96.879 91.989, 98 93.852, 98 97.082 C 98 98.137, 98.450 99, 99 99 C 101.585 99, 97.655 91.390, 94.128 89.566 C 89.598 87.224, 87.160 87.640, 83.400 91.400 M 67.093 104.827 C 66.492 105.950, 66.016 107.461, 66.035 108.184 C 66.055 108.908, 66.640 108.475, 67.336 107.222 C 68.588 104.967, 68.623 104.984, 70.864 108.972 L 73.128 113 70.114 113 C 68.323 113, 66.658 112.289, 66.013 111.250 C 65.020 109.650, 64.952 109.672, 65.222 111.500 C 65.463 113.130, 66.410 113.557, 70.335 113.808 L 75.152 114.116 72.412 109.308 C 68.684 102.768, 68.346 102.484, 67.093 104.827 M 107.690 108.122 C 106.145 110.923, 105.112 113.445, 105.394 113.728 C 106.236 114.569, 115 112.956, 115 111.959 C 115 110.380, 111.816 102.999, 111.141 103.014 C 110.789 103.022, 109.236 105.321, 107.690 108.122 M 108.642 108.624 C 107.692 110.617, 107.126 112.460, 107.386 112.719 C 107.845 113.178, 114 112.109, 114 111.570 C 114 110.306, 111.648 105, 111.087 105 C 110.693 105, 109.593 106.631, 108.642 108.624 M 56.663 114.999 C 58.512 115.744, 58.769 116.500, 58.431 120.186 L 58.036 124.500 59.030 120.617 C 60.117 116.369, 59.046 113.950, 56.128 114.063 C 54.983 114.108, 55.142 114.386, 56.663 114.999 M 112.500 117.131 L 109.500 117.912 112.650 117.644 C 115.551 117.397, 115.846 117.656, 116.389 120.938 C 117.789 129.403, 116.590 136.155, 113.205 138.865 C 111.915 139.897, 111.865 140.126, 113 139.805 C 116.289 138.875, 118.165 132.930, 117.635 125.117 C 117.359 121.056, 116.766 117.423, 116.317 117.043 C 115.868 116.662, 114.150 116.702, 112.500 117.131 M 62.441 121.546 C 62.066 124.047, 62.038 126.372, 62.380 126.713 C 62.721 127.054, 63.006 126.246, 63.014 124.917 C 63.040 120.184, 64.137 118.123, 66.852 117.706 C 69.239 117.340, 69.186 117.285, 66.311 117.150 C 63.263 117.007, 63.092 117.201, 62.441 121.546 M 73.743 118.758 C 76.846 119.134, 78.225 120.132, 81.669 124.497 L 85.838 129.781 83.169 132.288 C 76.914 138.164, 67.733 140.794, 64.995 137.494 C 64.307 136.665, 63.398 134.528, 62.975 132.744 C 62.392 130.287, 62.180 130.058, 62.102 131.800 C 62.046 133.064, 62.687 135.427, 63.526 137.050 C 64.839 139.589, 65.622 140, 69.154 140 C 73.495 140, 82.033 135.831, 85.471 132.032 C 87.273 130.041, 87.219 129.887, 82.780 124.250 C 78.620 118.968, 77.914 118.492, 74.118 118.402 L 69.985 118.304 73.743 118.758 M 98.848 122.250 C 97.023 124.588, 94.960 127.095, 94.264 127.821 C 93.569 128.548, 93 129.521, 93 129.983 C 93 132.353, 105.225 140.081, 108.710 139.914 C 109.915 139.856, 109.680 139.579, 107.994 139.066 C 104.510 138.006, 100.017 135.467, 96.670 132.665 L 93.840 130.297 98.023 124.703 C 101.551 119.986, 102.779 119.048, 105.853 118.722 L 109.500 118.336 105.834 118.168 C 102.622 118.021, 101.757 118.526, 98.848 122.250 M 84 119.984 C 84 120.526, 85.349 122.438, 86.998 124.234 L 89.996 127.500 92.971 124 C 94.607 122.075, 95.958 120.162, 95.973 119.750 C 95.988 119.338, 93.300 119, 90 119 C 86.700 119, 84 119.443, 84 119.984 M 87.047 123.066 L 89.230 126.132 91.615 123.892 C 95.008 120.704, 94.613 120, 89.432 120 L 84.864 120 87.047 123.066 M 57.252 128.500 C 57.263 130.700, 57.468 131.482, 57.707 130.238 C 57.946 128.994, 57.937 127.194, 57.687 126.238 C 57.437 125.282, 57.241 126.300, 57.252 128.500 M 121.136 132.764 C 120.982 135.330, 119.422 138.399, 116.500 141.887 C 115.050 143.618, 114.912 144.148, 116 143.814 C 118.205 143.136, 122.211 135.377, 121.707 132.758 L 121.272 130.500 121.136 132.764 M 58.452 136 C 59.227 140.992, 63.927 145.037, 68.766 144.875 L 72.500 144.750 68.378 144.075 C 63.568 143.287, 61.255 141.273, 59.312 136.179 L 57.908 132.500 58.452 136 M 85 136.550 C 82.525 138.429, 78.700 140.873, 76.500 141.982 C 74.300 143.091, 73.199 143.999, 74.054 143.999 C 75.794 144, 84.346 138.853, 87.648 135.818 L 89.796 133.843 95.648 138.340 C 101.843 143.099, 107.984 145.494, 112.044 144.733 C 114.165 144.335, 114.077 144.254, 111.399 144.136 C 106.366 143.915, 101.860 141.948, 95.826 137.336 C 92.705 134.951, 90.005 133.030, 89.826 133.067 C 89.647 133.104, 87.475 134.671, 85 136.550 M 254.800 174.749 C 255.398 194.158, 261.078 208.397, 272.748 219.739 C 282.594 229.308, 294.250 234, 308.178 234 C 313.722 234, 314.599 234.309, 318.132 237.500 C 324.838 243.559, 327.452 241.720, 321.500 235.132 C 319.575 233.001, 317.993 230.412, 317.985 229.379 C 317.976 228.345, 317.497 226.825, 316.919 226 C 316.109 224.842, 316.022 225.041, 316.539 226.868 C 317.036 228.622, 316.858 229.109, 315.855 228.743 C 315.110 228.472, 314.595 227.797, 314.711 227.243 C 314.827 226.689, 314.200 226.295, 313.318 226.368 C 312.437 226.440, 311.520 225.825, 311.281 225 C 310.896 223.667, 310.976 223.667, 312 225 C 313.024 226.333, 313.104 226.333, 312.722 225 C 312.486 224.175, 311.618 223.617, 310.793 223.760 C 309.968 223.903, 307.120 221.653, 304.465 218.760 C 301.810 215.867, 296.682 210.322, 293.069 206.438 C 283.400 196.043, 281.862 194.032, 282.632 192.786 C 283.074 192.071, 282.774 191.873, 281.810 192.243 C 280.790 192.634, 277.870 190.188, 272.896 184.777 C 260.488 171.276, 258.108 168.558, 258.422 168.245 C 259.136 167.531, 264.066 170.083, 263.559 170.905 C 263.250 171.405, 263.986 171.555, 265.195 171.239 C 267.302 170.688, 267.312 170.629, 265.446 169.824 C 264.141 169.261, 264.652 169.170, 267 169.549 C 268.925 169.859, 271.510 170.135, 272.743 170.163 C 273.977 170.190, 274.738 170.615, 274.434 171.106 C 273.780 172.165, 274.755 172.153, 277.500 171.070 C 278.984 170.485, 277.695 169.984, 272.500 169.131 C 268.650 168.498, 263.402 167.872, 260.838 167.740 C 258.274 167.608, 256.249 167.106, 256.338 166.625 C 256.427 166.144, 256.050 165.581, 255.500 165.374 C 254.864 165.135, 254.609 168.543, 254.800 174.749 M 279.166 171.884 C 277.346 173.027, 280.547 174.279, 283.166 173.447 C 284.420 173.049, 284.958 173.292, 284.775 174.175 C 284.599 175.023, 285.331 175.411, 286.808 175.251 C 288.123 175.110, 288.854 175.428, 288.506 175.990 C 288.140 176.582, 288.617 176.707, 289.698 176.301 C 291.245 175.721, 291.316 175.851, 290.201 177.224 C 289.201 178.456, 289.179 178.992, 290.106 179.565 C 290.845 180.022, 291.048 179.887, 290.633 179.215 C 290.220 178.547, 290.745 178.180, 291.978 178.273 C 293.090 178.357, 294 178.806, 294 179.272 C 294 179.737, 294.384 179.881, 294.853 179.591 C 295.322 179.301, 296.559 179.761, 297.603 180.614 C 299.151 181.878, 299.191 182.067, 297.823 181.641 C 296.901 181.354, 295.638 181.731, 295.017 182.479 C 294.130 183.548, 294.275 183.780, 295.694 183.561 C 296.687 183.408, 297.831 183.782, 298.235 184.392 C 298.681 185.065, 298.975 184.763, 298.985 183.621 C 298.997 182.107, 299.771 182.489, 302.961 185.585 C 305.480 188.030, 306.514 189.682, 305.802 190.122 C 305.186 190.503, 304.078 190.583, 303.341 190.300 C 302.603 190.018, 302 190.258, 302 190.836 C 302 191.880, 305.106 191.671, 307.004 190.498 C 307.552 190.159, 308 190.436, 308 191.112 C 308 191.789, 308.711 193.128, 309.580 194.088 C 310.846 195.487, 310.930 196.262, 310.004 197.993 C 308.921 200.016, 308.988 200.077, 311.076 198.959 C 313.008 197.925, 313.218 197.988, 312.663 199.436 C 312.311 200.353, 312.421 200.858, 312.907 200.558 C 313.803 200.003, 315.013 202.199, 314.985 204.332 C 314.975 205.052, 314.629 204.962, 314.081 204.097 C 313.445 203.093, 313.236 203.448, 313.346 205.346 C 313.516 208.281, 314.947 209.022, 315.090 206.250 C 315.140 205.287, 315.636 206.075, 316.192 208 C 316.914 210.498, 316.862 212.451, 316.010 214.825 C 315.353 216.654, 315.083 218.416, 315.408 218.742 C 315.734 219.067, 316 218.610, 316 217.726 C 316 216.841, 316.390 215.877, 316.867 215.582 C 317.343 215.288, 317.733 217.301, 317.733 220.057 C 317.733 222.812, 318.018 225.352, 318.367 225.700 C 319.529 226.863, 318.984 216.587, 317.515 209.653 C 314.629 196.032, 304.348 182.807, 291.189 175.786 C 283.161 171.503, 280.926 170.778, 279.166 171.884 M 288.429 182.114 C 288.429 184.332, 289.552 184.610, 290.330 182.583 C 290.629 181.803, 290.324 180.954, 289.651 180.696 C 288.954 180.429, 288.429 181.038, 288.429 182.114 M 144.136 185.250 C 144.022 187.553, 144.406 188, 146.500 188 C 148.594 188, 148.978 187.553, 148.864 185.250 C 148.747 182.892, 148.666 182.821, 148.294 184.750 C 148.056 185.988, 147.248 187, 146.500 187 C 145.752 187, 144.944 185.988, 144.706 184.750 C 144.334 182.821, 144.253 182.892, 144.136 185.250 M 153 190 C 153 196.249, 152.793 197, 151.070 197 C 149.863 197, 148.977 196.157, 148.706 194.750 C 148.334 192.821, 148.253 192.892, 148.136 195.250 C 148.016 197.669, 148.361 198, 151 198 L 154 198 154 190.500 C 154 186.375, 153.775 183, 153.500 183 C 153.225 183, 153 186.150, 153 190 M 155.195 185.500 C 155.215 187.150, 155.439 187.704, 155.693 186.731 C 155.947 185.758, 155.930 184.408, 155.656 183.731 C 155.382 183.054, 155.175 183.850, 155.195 185.500 M 187 190 C 187 196.333, 186.810 197, 185 197 C 183.436 197, 183 196.333, 183 193.941 C 183 192.259, 182.625 191.114, 182.167 191.397 C 181.708 191.680, 181.535 193.282, 181.780 194.956 C 182.160 197.542, 182.662 198, 185.113 198 L 188 198 188 190.500 C 188 186.375, 187.775 183, 187.500 183 C 187.225 183, 187 186.150, 187 190 M 189.424 190 L 189.500 197.500 195.821 197.800 L 202.142 198.099 201.821 195.300 C 201.553 192.964, 200.970 192.449, 198.302 192.191 C 195.301 191.900, 195.080 191.608, 194.710 187.434 L 194.316 182.987 194.408 187.744 C 194.497 192.357, 194.598 192.509, 197.750 192.813 C 200.190 193.049, 201 193.609, 201 195.063 C 201 196.742, 200.274 197, 195.544 197 L 190.088 197 189.718 189.750 L 189.349 182.500 189.424 190 M 139.196 190.816 L 139 198.133 141.750 197.816 C 143.685 197.594, 144.529 196.907, 144.598 195.500 C 144.673 193.978, 144.597 193.918, 144.279 195.250 C 144.049 196.213, 143.013 197, 141.976 197 C 140.350 197, 140.043 196.072, 139.742 190.250 L 139.392 183.500 139.196 190.816 M 159.398 192.500 C 159.497 197.332, 159.601 197.505, 162.500 197.645 C 165.245 197.777, 165.271 197.751, 162.802 197.333 C 160.395 196.926, 160.061 196.372, 159.700 192.189 L 159.296 187.500 159.398 192.500 M 61 190.941 C 61 191.459, 61.450 192.160, 62 192.500 C 63.657 193.524, 63.121 197.198, 60.490 202.849 C 56.586 211.236, 57.437 214.315, 64.391 216.958 C 68.402 218.483, 68.767 217.566, 65.028 215.358 C 60.932 212.938, 60.395 210.217, 62.921 204.673 C 65.392 199.249, 65.605 193.748, 63.429 191.571 C 61.626 189.768, 61 189.606, 61 190.941 M 304.030 193.342 C 304.014 193.806, 304.900 195.329, 306 196.727 C 307.953 199.210, 308 199.218, 308 197.076 C 308 195.869, 307.578 195.143, 307.061 195.462 C 306.545 195.781, 305.659 195.245, 305.092 194.271 C 304.525 193.297, 304.047 192.879, 304.030 193.342 M 172.269 197.693 C 173.242 197.947, 174.592 197.930, 175.269 197.656 C 175.946 197.382, 175.150 197.175, 173.500 197.195 C 171.850 197.215, 171.296 197.439, 172.269 197.693 M 66.438 202.516 C 63.259 207.941, 63.721 211.359, 67.963 213.793 C 70.879 215.467, 72.606 219.631, 70.654 220.282 C 69.970 220.510, 70.021 220.895, 70.799 221.376 C 71.460 221.784, 72 221.615, 72 221 C 72 220.385, 72.453 220.162, 73.007 220.504 C 73.561 220.847, 74.283 220.426, 74.612 219.569 C 74.941 218.712, 75.590 218.247, 76.055 218.534 C 76.519 218.821, 77.406 218.109, 78.026 216.952 C 79.065 215.010, 78.988 214.936, 77.019 215.990 C 75.847 216.617, 74.640 217.774, 74.339 218.560 C 73.361 221.107, 72.048 219.012, 72.670 215.899 C 73.185 213.324, 72.773 212.456, 69.887 210.046 L 66.500 207.217 68.737 202.608 C 71.615 196.679, 69.899 196.610, 66.438 202.516 M 132.018 204.750 C 132.157 210.547, 138.923 281.256, 139.382 281.716 C 140.116 282.449, 168.363 290, 170.373 290 C 171.660 290, 177.391 288.679, 183.107 287.063 C 188.823 285.448, 195.412 283.631, 197.750 283.025 C 201.421 282.073, 202.004 281.553, 202.030 279.211 C 202.047 277.720, 202.710 269.750, 203.505 261.500 C 204.299 253.250, 205.627 238.625, 206.455 229 C 207.284 219.375, 208.153 209.813, 208.386 207.750 L 208.810 204 170.405 204 C 149.282 204, 132.008 204.338, 132.018 204.750 M 80.249 212.199 C 79.407 213.215, 79.789 213.500, 81.990 213.500 C 83.540 213.500, 84.600 213.162, 84.345 212.750 C 84.091 212.338, 84.321 212, 84.858 212 C 85.394 212, 86.062 212.461, 86.342 213.025 C 86.621 213.589, 86.737 213.476, 86.598 212.775 C 86.252 211.025, 81.576 210.601, 80.249 212.199 M 304.405 216.858 C 306.443 219.150, 307 219.446, 307 218.241 C 307 217.823, 305.988 216.859, 304.750 216.099 C 302.508 214.722, 302.507 214.724, 304.405 216.858 M 86 216.892 C 86 217.566, 85.616 217.881, 85.146 217.590 C 84.677 217.300, 83.786 218.174, 83.168 219.531 C 82.507 220.982, 82.437 222, 82.998 222 C 84.299 222, 87.429 217.096, 86.635 216.302 C 86.286 215.953, 86 216.218, 86 216.892 M 147.326 223.750 C 147.647 225.813, 148.218 232.113, 148.597 237.750 L 149.286 248 165.643 248 L 182 248 181.985 253.750 C 181.976 256.913, 181.639 259.997, 181.235 260.605 C 180.831 261.212, 178.165 262.263, 175.310 262.940 C 171.191 263.917, 168.974 263.914, 164.560 262.926 L 159 261.682 159 257.841 L 159 254 154.420 254 L 149.841 254 150.544 260.750 C 150.930 264.462, 151.357 267.628, 151.491 267.785 C 151.626 267.942, 155.885 269.254, 160.956 270.702 C 170.896 273.539, 170.888 273.540, 185.113 269.360 L 189.726 268.004 190.391 258.252 C 190.757 252.888, 191.318 246.598, 191.638 244.274 L 192.220 240.048 174.860 239.774 L 157.500 239.500 157.198 234.250 L 156.895 229 174.948 229 L 193 229 193 226.082 C 193 224.477, 193.273 222.452, 193.607 221.582 C 194.150 220.167, 191.711 220, 170.479 220 L 146.744 220 147.326 223.750 M 58.635 223.073 C 56.095 225.071, 55.057 228, 56.889 228 C 57.378 228, 57.715 227.213, 57.639 226.250 C 57.493 224.411, 58.013 224.317, 61.875 225.492 C 63.503 225.987, 64.035 225.866, 63.566 225.107 C 63.190 224.498, 62.121 223.986, 61.191 223.968 C 59.712 223.940, 59.743 223.753, 61.441 222.468 C 62.509 221.661, 62.907 221, 62.326 221 C 61.745 221, 60.084 221.933, 58.635 223.073 M 67.143 221.890 C 66.197 222.490, 66.122 222.957, 66.893 223.434 C 67.502 223.810, 68 223.615, 68 223 C 68 222.385, 68.520 222.203, 69.155 222.595 C 69.870 223.038, 70.038 222.870, 69.595 222.155 C 68.753 220.791, 68.860 220.803, 67.143 221.890 M 75.500 222.575 C 74.400 223.406, 73.500 224.553, 73.500 225.124 C 73.500 225.695, 72.375 226.785, 71 227.546 C 69.625 228.307, 68.911 228.945, 69.412 228.965 C 70.371 229.002, 80 223.056, 80 222.427 C 80 222.227, 79.251 222.350, 78.336 222.701 C 77.217 223.131, 76.909 222.957, 77.395 222.170 C 78.336 220.647, 77.938 220.732, 75.500 222.575 M 89 226.076 C 89 226.733, 87.875 228.313, 86.500 229.588 C 85.125 230.862, 84 231.689, 84 231.427 C 84 231.164, 82.635 231.654, 80.967 232.517 C 79.299 233.379, 78.201 234.516, 78.526 235.043 C 78.852 235.569, 79.343 236, 79.618 236 C 79.893 236, 79.793 235.474, 79.395 234.830 C 78.928 234.074, 79.193 233.860, 80.144 234.225 C 81.687 234.817, 91 228.661, 91 227.049 C 91 226.537, 90.550 225.840, 90 225.500 C 89.450 225.160, 89 225.419, 89 226.076 M 62.450 228.083 C 62.251 228.404, 62.631 228.688, 63.294 228.714 C 63.957 228.740, 65.400 229.083, 66.500 229.475 C 67.939 229.989, 68.118 229.916, 67.137 229.215 C 65.986 228.394, 65.986 228.165, 67.137 227.748 C 67.887 227.476, 67.220 227.309, 65.656 227.377 C 64.092 227.444, 62.649 227.762, 62.450 228.083 M 78.756 227.664 C 79.447 227.943, 79.758 228.582, 79.447 229.085 C 78.540 230.553, 79.640 230.138, 81 228.500 C 82.049 227.237, 81.871 227.012, 79.872 227.079 C 78.568 227.122, 78.065 227.386, 78.756 227.664 M 92.079 227.713 C 92.036 228.380, 89.230 230.807, 85.844 233.106 C 80.357 236.832, 79.460 237.145, 77.594 235.983 C 75.743 234.830, 75.648 234.858, 76.776 236.223 C 77.830 237.498, 77.764 237.877, 76.399 238.400 C 75.490 238.749, 74.195 238.577, 73.522 238.018 C 72.682 237.321, 71.071 237.427, 68.399 238.353 C 64.727 239.625, 64.639 239.748, 66.882 240.461 C 68.746 241.054, 68.963 241.419, 67.882 242.140 C 64.644 244.298, 73.019 241.537, 80.500 237.980 C 88.860 234.005, 93.584 230.067, 92.686 227.821 C 92.320 226.906, 92.134 226.873, 92.079 227.713 M 72.500 230.055 C 70.300 231.096, 69.085 231.959, 69.800 231.974 C 71.255 232.003, 77 229.211, 77 228.474 C 77 227.889, 77.296 227.785, 72.500 230.055 M 75.441 231.555 C 73.577 233.049, 73.589 233.067, 75.750 232.020 C 76.987 231.420, 78 230.720, 78 230.465 C 78 229.700, 77.481 229.921, 75.441 231.555 M 65.768 234.168 C 66.350 234.750, 67.415 235.028, 68.137 234.788 C 68.886 234.538, 68.432 234.085, 67.080 233.731 C 65.417 233.296, 65.026 233.426, 65.768 234.168 M 61.458 238.282 C 59.817 239.694, 59.260 240.671, 60.093 240.676 C 60.867 240.681, 62.625 241, 64 241.385 L 66.500 242.083 64.099 240.676 C 61.813 239.335, 61.788 239.218, 63.591 238.209 C 64.632 237.627, 65.202 236.868, 64.857 236.524 C 64.513 236.179, 62.983 236.971, 61.458 238.282 M 71.566 239.107 C 72.035 239.866, 71.502 239.988, 69.875 239.495 C 68.035 238.937, 67.759 239.048, 68.649 239.987 C 69.949 241.357, 74.356 240.386, 73.456 238.928 C 73.140 238.418, 72.432 238, 71.882 238 C 71.332 238, 71.190 238.498, 71.566 239.107 M 91.750 240.080 C 90.787 240.641, 90 241.752, 90 242.550 C 90 244.318, 90.463 244.353, 92.989 242.775 C 94.536 241.808, 95.208 241.808, 96.175 242.775 C 97.142 243.742, 97.067 244, 95.822 244 C 93.373 244, 91.704 246.683, 92.407 249.487 C 93.113 252.299, 95.152 252.673, 99.293 250.750 C 102.523 249.250, 102.621 248.138, 99.980 242.960 C 97.872 238.829, 95.390 237.960, 91.750 240.080 M 59.750 242.662 C 60.438 242.940, 61.563 242.940, 62.250 242.662 C 62.938 242.385, 62.375 242.158, 61 242.158 C 59.625 242.158, 59.063 242.385, 59.750 242.662 M 86.306 242.644 C 85.650 242.911, 85.274 243.663, 85.473 244.315 C 85.671 244.967, 86.130 246.850, 86.493 248.500 L 87.153 251.500 84.272 248.750 C 81.636 246.234, 79 245.150, 79 246.582 C 79 246.902, 80.629 249.152, 82.620 251.582 C 88.381 258.612, 90.756 257.206, 89.541 247.484 C 88.863 242.054, 88.626 241.700, 86.306 242.644 M 95.667 246.667 C 94.516 247.817, 94.938 249, 96.500 249 C 97.325 249, 98 248.325, 98 247.500 C 98 245.938, 96.817 245.516, 95.667 246.667 M 64 249.362 C 64 250.111, 65.370 253.744, 67.044 257.436 C 68.847 261.414, 69.838 264.934, 69.476 266.075 C 69.053 267.409, 69.340 268, 70.414 268 C 73.561 268, 73.352 263.241, 69.863 255.482 C 66.832 248.740, 64 245.784, 64 249.362 M 71.861 249.914 C 70.562 250.967, 69.827 252.156, 70.226 252.556 C 70.625 252.957, 71.632 252.721, 72.463 252.031 C 73.294 251.341, 74.708 251.058, 75.605 251.402 C 76.979 251.929, 76.824 252.350, 74.617 254.086 C 71.587 256.470, 71.385 257.663, 73.595 260.105 C 75.117 261.787, 75.369 261.775, 79.041 259.862 C 82.676 257.967, 82.826 257.705, 81.732 255.177 C 78.478 247.658, 76.165 246.425, 71.861 249.914 M 75.459 256.067 C 74.539 257.556, 75.606 258.365, 77.520 257.631 C 78.404 257.292, 78.847 256.561, 78.504 256.007 C 77.694 254.696, 76.289 254.723, 75.459 256.067 M 296 273.722 C 295.175 274.032, 293.375 275.051, 292 275.987 C 290.625 276.922, 286.575 279.273, 283 281.211 C 268.446 289.098, 264.465 291.688, 263.276 294.036 C 262.418 295.731, 262.025 302.176, 262.015 314.694 C 261.998 335.373, 262.034 335.474, 271 340.322 C 277.394 343.779, 281.145 344.384, 285.333 342.634 C 290.444 340.499, 291.166 336.983, 290.803 316 L 290.500 298.500 287.500 298.500 L 284.500 298.500 284 317.500 L 283.500 336.500 280.959 336.796 C 279.561 336.959, 276.299 335.908, 273.709 334.461 L 269 331.829 269 313.963 L 269 296.098 275.750 292.361 C 279.462 290.305, 286.319 286.451, 290.986 283.795 C 295.654 281.140, 300.126 279.218, 300.925 279.525 C 301.724 279.831, 308.818 283.739, 316.689 288.209 L 331 296.337 331 314.038 L 331 331.739 316.250 340.020 C 308.137 344.575, 301.152 348.492, 300.728 348.724 C 300.303 348.956, 297.943 348.021, 295.483 346.647 C 291.259 344.285, 290.841 344.233, 287.921 345.689 C 284.291 347.500, 284.443 347.695, 293.258 352.505 L 300.016 356.192 313.258 348.930 C 320.541 344.936, 328.863 340.173, 331.750 338.346 L 337 335.025 337 314.167 C 337 295.540, 336.813 293.150, 335.250 291.814 C 334.288 290.991, 326.491 286.421, 317.925 281.659 C 303.401 273.584, 299.818 272.287, 296 273.722 M 299.500 298.945 C 295.605 300.540, 293.856 303.536, 294.188 308.048 C 294.604 313.722, 297.402 315.678, 307 317.006 C 316.763 318.358, 318 318.792, 318 320.867 C 318 324.012, 315.788 325, 308.753 325 C 302.195 325, 301.835 324.874, 300.203 322.006 C 298.962 319.824, 297.755 319.011, 295.750 319.006 C 293.400 319.001, 293 319.409, 293 321.813 C 293 332.503, 319.281 335.457, 323.915 325.288 C 325.268 322.317, 325.307 318.442, 324.008 316.014 C 322.910 313.964, 319.509 312.700, 310.500 310.997 C 301.679 309.329, 301 309.044, 301 307.010 C 301 305.764, 302.191 304.762, 304.628 303.958 C 309.494 302.352, 315.230 304.015, 316.814 307.491 C 317.600 309.216, 318.755 310, 320.510 310 C 323.593 310, 324.429 308.258, 323.066 304.673 C 321.364 300.197, 316.517 297.999, 308.500 298.067 C 304.650 298.100, 300.600 298.495, 299.500 298.945 M 53.196 313.250 L 53.392 320.500 53.740 313.799 L 54.089 307.097 59.795 306.738 L 65.500 306.378 59.250 306.189 L 53 306 53.196 313.250 M 68.768 306.725 C 70.565 306.947, 73.265 306.943, 74.768 306.715 C 76.271 306.486, 74.800 306.304, 71.500 306.310 C 68.200 306.315, 66.971 306.502, 68.768 306.725 M 81.768 306.725 C 83.565 306.947, 86.265 306.943, 87.768 306.715 C 89.271 306.486, 87.800 306.304, 84.500 306.310 C 81.200 306.315, 79.971 306.502, 81.768 306.725 M 72.250 310.689 C 73.213 310.941, 74.787 310.941, 75.750 310.689 C 76.713 310.438, 75.925 310.232, 74 310.232 C 72.075 310.232, 71.287 310.438, 72.250 310.689 M 85.250 310.689 C 86.213 310.941, 87.787 310.941, 88.750 310.689 C 89.713 310.438, 88.925 310.232, 87 310.232 C 85.075 310.232, 84.287 310.438, 85.250 310.689 M 58.158 313 C 58.158 314.375, 58.385 314.938, 58.662 314.250 C 58.940 313.563, 58.940 312.438, 58.662 311.750 C 58.385 311.063, 58.158 311.625, 58.158 313 M 67.762 315.707 C 69.006 315.946, 70.806 315.937, 71.762 315.687 C 72.718 315.437, 71.700 315.241, 69.500 315.252 C 67.300 315.263, 66.518 315.468, 67.762 315.707 M 80.250 315.689 C 81.213 315.941, 82.787 315.941, 83.750 315.689 C 84.713 315.438, 83.925 315.232, 82 315.232 C 80.075 315.232, 79.287 315.438, 80.250 315.689 M 37.015 326.750 C 37.026 327.983, 37.263 328.135, 37.816 327.263 C 38.409 326.329, 47.031 325.959, 73.051 325.750 L 107.500 325.473 72.250 325.236 C 39.250 325.015, 37.001 325.112, 37.015 326.750 M 163.750 327.662 C 164.438 327.940, 165.563 327.940, 166.250 327.662 C 166.938 327.385, 166.375 327.158, 165 327.158 C 163.625 327.158, 163.063 327.385, 163.750 327.662 M 207.500 327.681 C 208.600 327.984, 209.872 328.742, 210.326 329.366 C 210.872 330.115, 211.015 329.991, 210.748 329 C 210.525 328.175, 209.254 327.417, 207.922 327.315 C 206.012 327.170, 205.923 327.247, 207.500 327.681 M 106.232 333 C 106.232 334.925, 106.438 335.712, 106.689 334.750 C 106.941 333.788, 106.941 332.212, 106.689 331.250 C 106.438 330.288, 106.232 331.075, 106.232 333 M 161.232 335 C 161.232 336.925, 161.438 337.712, 161.689 336.750 C 161.941 335.788, 161.941 334.212, 161.689 333.250 C 161.438 332.288, 161.232 333.075, 161.232 335 M 211.195 334.500 C 211.215 336.150, 211.439 336.704, 211.693 335.731 C 211.947 334.758, 211.930 333.408, 211.656 332.731 C 211.382 332.054, 211.175 332.850, 211.195 334.500 M 38.252 336.500 C 38.263 338.700, 38.468 339.482, 38.707 338.238 C 38.946 336.994, 38.937 335.194, 38.687 334.238 C 38.437 333.282, 38.241 334.300, 38.252 336.500 M 49.999 340.750 C 49.999 341.163, 59.644 341.371, 71.433 341.212 L 92.868 340.925 93.274 344.212 C 93.679 347.496, 93.680 347.495, 93.840 343.750 L 94 340 72 340 C 59.900 340, 50 340.337, 49.999 340.750 M 105.252 344.500 C 105.263 346.700, 105.468 347.482, 105.707 346.238 C 105.946 344.994, 105.937 343.194, 105.687 342.238 C 105.437 341.282, 105.241 342.300, 105.252 344.500 M 39.232 348 C 39.232 349.925, 39.438 350.712, 39.689 349.750 C 39.941 348.788, 39.941 347.212, 39.689 346.250 C 39.438 345.288, 39.232 346.075, 39.232 348 M 50.998 348.250 C 50.999 348.663, 58.392 349, 67.427 349 C 81.249 349, 83.928 349.241, 84.325 350.520 C 84.655 351.584, 84.749 351.509, 84.637 350.270 C 84.493 348.676, 82.815 348.450, 67.737 348 C 58.530 347.725, 50.997 347.837, 50.998 348.250 M 169.299 351.503 C 164.708 354.719, 164.360 363.425, 168.634 368.148 C 171.254 371.043, 179.487 373.002, 188.932 372.978 C 202.763 372.943, 209 368.972, 209 360.201 C 209 356.721, 208.413 355.259, 206.077 352.923 L 203.154 350 187.299 350 C 174.811 350, 170.989 350.319, 169.299 351.503 M 216.232 353 C 216.232 354.925, 216.438 355.712, 216.689 354.750 C 216.941 353.788, 216.941 352.212, 216.689 351.250 C 216.438 350.288, 216.232 351.075, 216.232 353 M 104.195 353.500 C 104.215 355.150, 104.439 355.704, 104.693 354.731 C 104.947 353.758, 104.930 352.408, 104.656 351.731 C 104.382 351.054, 104.175 351.850, 104.195 353.500 M 92.232 355 C 92.232 356.925, 92.438 357.712, 92.689 356.750 C 92.941 355.788, 92.941 354.212, 92.689 353.250 C 92.438 352.288, 92.232 353.075, 92.232 355 M 171.464 358.289 C 170.622 361.642, 172.573 366, 174.916 366 C 175.997 366, 177.134 365.592, 177.442 365.093 C 177.751 364.595, 177.141 364.412, 176.087 364.687 C 173.663 365.321, 171.592 361.761, 172.434 358.407 C 172.766 357.083, 172.813 356, 172.538 356 C 172.263 356, 171.780 357.030, 171.464 358.289 M 202.796 359.376 C 203.330 363.951, 200.787 366.008, 197.836 363.388 C 195.726 361.515, 195.718 361.518, 196.890 363.750 C 198.338 366.511, 201.567 366.678, 202.965 364.066 C 204.188 361.780, 204.334 357.325, 203.209 356.629 C 202.774 356.360, 202.588 357.596, 202.796 359.376 M 40.232 360 C 40.232 361.925, 40.438 362.712, 40.689 361.750 C 40.941 360.788, 40.941 359.212, 40.689 358.250 C 40.438 357.288, 40.232 358.075, 40.232 360 M 52.381 362.500 L 52.500 366.500 67.751 366.540 L 83.002 366.581 68.060 366.265 L 53.118 365.949 52.690 362.224 L 52.262 358.500 52.381 362.500 M 215.079 361.250 C 215.013 362.703, 215.890 363.001, 220.250 363.009 C 223.137 363.013, 227.975 363.223, 231 363.475 C 235.112 363.817, 235.743 363.718, 233.500 363.084 C 231.850 362.618, 227.275 362.183, 223.333 362.118 C 218.631 362.041, 215.993 361.570, 215.662 360.750 C 215.361 360.003, 215.126 360.205, 215.079 361.250 M 103.232 364 C 103.232 365.925, 103.438 366.712, 103.689 365.750 C 103.941 364.788, 103.941 363.212, 103.689 362.250 C 103.438 361.288, 103.232 362.075, 103.232 364 M 141.500 363.011 C 139.731 363.467, 142.807 363.646, 149 363.448 C 159.258 363.119, 159.350 363.135, 153 364.159 C 145.279 365.403, 138.659 366.992, 139.150 367.483 C 139.343 367.677, 141.610 367.441, 144.186 366.960 C 146.762 366.478, 151.552 365.953, 154.829 365.792 C 160.149 365.531, 160.688 365.312, 159.859 363.750 C 159.095 362.312, 157.643 362.021, 151.715 362.118 C 147.747 362.183, 143.150 362.585, 141.500 363.011 M 91.232 367 C 91.232 368.925, 91.438 369.712, 91.689 368.750 C 91.941 367.788, 91.941 366.212, 91.689 365.250 C 91.438 364.288, 91.232 365.075, 91.232 367 M 222.500 365.567 C 226.900 366.295, 231.850 367.133, 233.500 367.428 C 235.487 367.784, 235.993 367.669, 235 367.087 C 233.262 366.070, 220.211 363.942, 216.808 364.122 C 215.539 364.189, 218.100 364.839, 222.500 365.567 M 210.924 368.750 L 208.500 371.500 211.250 369.076 C 212.762 367.742, 214 366.505, 214 366.326 C 214 365.541, 213.190 366.180, 210.924 368.750 M 41.252 371.500 C 41.263 373.700, 41.468 374.482, 41.707 373.238 C 41.946 371.994, 41.937 370.194, 41.687 369.238 C 41.437 368.282, 41.241 369.300, 41.252 371.500 M 82.252 371.500 C 82.263 373.700, 82.468 374.482, 82.707 373.238 C 82.946 371.994, 82.937 370.194, 82.687 369.238 C 82.437 368.282, 82.241 369.300, 82.252 371.500 M 53.413 371.366 C 53.099 372.185, 53.041 373.900, 53.285 375.177 C 53.622 376.946, 53.760 376.724, 53.864 374.250 C 53.990 371.244, 54.257 371, 57.417 371 C 59.296 371, 61.062 371.461, 61.342 372.025 C 61.621 372.589, 61.736 372.476, 61.598 371.775 C 61.221 369.872, 54.122 369.518, 53.413 371.366 M 102.232 375 C 102.232 376.925, 102.438 377.712, 102.689 376.750 C 102.941 375.788, 102.941 374.212, 102.689 373.250 C 102.438 372.288, 102.232 373.075, 102.232 375 M 159.324 373.798 C 160.327 374.227, 161.081 374.999, 160.999 375.514 C 160.917 376.029, 161.446 376.608, 162.175 376.801 C 163.260 377.089, 163.258 376.982, 162.165 376.214 C 161.430 375.698, 160.891 374.877, 160.967 374.388 C 161.043 373.900, 160.294 373.391, 159.303 373.258 C 157.596 373.030, 157.597 373.058, 159.324 373.798 M 90.252 378.500 C 90.263 380.700, 90.468 381.482, 90.707 380.238 C 90.946 378.994, 90.937 377.194, 90.687 376.238 C 90.437 375.282, 90.241 376.300, 90.252 378.500 M 156.345 376.543 C 156.019 377.392, 156.034 378.367, 156.376 378.710 C 156.719 379.053, 157 378.528, 157 377.544 C 157 375.984, 157.224 375.931, 158.750 377.128 C 160.336 378.371, 160.371 378.336, 159.128 376.750 C 157.446 374.606, 157.098 374.580, 156.345 376.543 M 42.232 383 C 42.232 384.925, 42.438 385.712, 42.689 384.750 C 42.941 383.788, 42.941 382.212, 42.689 381.250 C 42.438 380.288, 42.232 381.075, 42.232 383 M 169 381.912 C 169 382.928, 171.557 382.776, 172.638 381.696 C 173.020 381.313, 172.358 381, 171.167 381 C 169.975 381, 169 381.410, 169 381.912 M 199.199 388.250 C 199.031 394.784, 199.308 396.308, 200.964 397.964 C 203.309 400.309, 202.142 401.385, 198.681 400.069 C 195.117 398.714, 194.556 397.300, 194.686 390 L 194.802 383.500 193.962 390 C 193.415 394.239, 193.496 397.468, 194.196 399.282 C 194.786 400.812, 194.998 402.336, 194.666 402.668 C 193.395 403.938, 189.140 399.918, 188.440 396.784 L 187.706 393.500 186.518 397 C 185.345 400.456, 180.788 404.122, 179.396 402.729 C 179.002 402.335, 179.422 401.191, 180.330 400.187 C 181.740 398.629, 181.850 397.276, 181.083 390.931 L 180.183 383.500 180.323 390.353 C 180.447 396.424, 180.196 397.423, 178.121 399.103 C 175.999 400.821, 172 401.734, 172 400.500 C 172 400.225, 172.900 399.100, 174 398 C 175.506 396.494, 175.957 394.826, 175.825 391.250 L 175.651 386.500 175.271 390.682 C 174.928 394.465, 174.586 394.930, 171.696 395.541 C 166.611 396.617, 160.992 400.183, 160.350 402.742 C 159.468 406.255, 162.425 408.768, 170.233 411.139 C 176.202 412.952, 178.854 413.162, 190.305 412.726 C 197.562 412.449, 205.211 411.640, 207.302 410.928 C 211.702 409.429, 216 405.785, 216 403.554 C 216 401.283, 208.524 396.264, 204.005 395.501 L 200.084 394.838 199.741 387.669 L 199.397 380.500 199.199 388.250 M 54 382.902 C 54 383.940, 55.902 385.443, 56.466 384.850 C 56.649 384.658, 56.169 383.920, 55.399 383.211 C 54.630 382.501, 54 382.362, 54 382.902 M 101.232 387 C 101.232 388.925, 101.438 389.712, 101.689 388.750 C 101.941 387.788, 101.941 386.212, 101.689 385.250 C 101.438 384.288, 101.232 385.075, 101.232 387 M 43 393.941 C 43 395.009, 43.385 396.120, 43.856 396.411 C 44.326 396.702, 44.499 395.828, 44.239 394.470 C 43.675 391.519, 43 391.231, 43 393.941 M 129.250 408.689 C 130.213 408.941, 131.787 408.941, 132.750 408.689 C 133.713 408.438, 132.925 408.232, 131 408.232 C 129.075 408.232, 128.287 408.438, 129.250 408.689 M 124.195 414.500 C 124.215 416.150, 124.439 416.704, 124.693 415.731 C 124.947 414.758, 124.930 413.408, 124.656 412.731 C 124.382 412.054, 124.175 412.850, 124.195 414.500 M 147.250 415.689 C 148.213 415.941, 149.787 415.941, 150.750 415.689 C 151.713 415.438, 150.925 415.232, 149 415.232 C 147.075 415.232, 146.287 415.438, 147.250 415.689 M 130.500 420 C 131.495 421.100, 132.535 422, 132.810 422 C 133.085 422, 132.495 421.100, 131.500 420 C 130.505 418.900, 129.465 418, 129.190 418 C 128.915 418, 129.505 418.900, 130.500 420 M 145.250 419.689 C 146.213 419.941, 147.787 419.941, 148.750 419.689 C 149.713 419.438, 148.925 419.232, 147 419.232 C 145.075 419.232, 144.287 419.438, 145.250 419.689 M 160 423.430 C 160 423.705, 160.900 424.411, 162 425 C 163.100 425.589, 164 425.845, 164 425.570 C 164 425.295, 163.100 424.589, 162 424 C 160.900 423.411, 160 423.155, 160 423.430 M 151 430.250 C 151 431.121, 150.438 432.060, 149.750 432.338 C 148.771 432.733, 148.778 432.859, 149.781 432.921 C 151.207 433.009, 152.599 430.266, 151.624 429.290 C 151.281 428.947, 151 429.379, 151 430.250 M 175 435.500 C 176.866 437.425, 178.617 439, 178.892 439 C 179.167 439, 177.866 437.425, 176 435.500 C 174.134 433.575, 172.383 432, 172.108 432 C 171.833 432, 173.134 433.575, 175 435.500 M 188.638 445.500 C 190.950 449.448, 191 449.507, 191 448.277 C 191 447.697, 190.073 446.159, 188.941 444.861 L 186.881 442.500 188.638 445.500 M 139.286 464.500 C 139.294 467.250, 139.488 468.256, 139.718 466.736 C 139.947 465.216, 139.941 462.966, 139.704 461.736 C 139.467 460.506, 139.279 461.750, 139.286 464.500 M 201.226 471.579 C 202.176 472.570, 203.168 473.166, 203.431 472.903 C 203.694 472.640, 202.917 471.829, 201.705 471.100 C 199.598 469.835, 199.577 469.857, 201.226 471.579 M 149.158 474 C 149.158 475.375, 149.385 475.938, 149.662 475.250 C 149.940 474.563, 149.940 473.438, 149.662 472.750 C 149.385 472.063, 149.158 472.625, 149.158 474 M 159 481.313 C 159 481.485, 160.463 482.948, 162.250 484.563 L 165.500 487.500 162.563 484.250 C 159.825 481.221, 159 480.540, 159 481.313 M 163.970 482.944 C 164.543 484.014, 165.505 485.194, 166.109 485.567 C 166.713 485.941, 166.434 485.066, 165.489 483.623 C 163.487 480.568, 162.451 480.105, 163.970 482.944 M 214.500 483 C 215.495 484.100, 216.535 485, 216.810 485 C 217.085 485, 216.495 484.100, 215.500 483 C 214.505 481.900, 213.465 481, 213.190 481 C 212.915 481, 213.505 481.900, 214.500 483 M 224.063 486.577 C 225.953 488.819, 227.703 490.492, 227.950 490.294 C 228.197 490.095, 226.651 488.261, 224.513 486.217 L 220.626 482.500 224.063 486.577 M 219.339 486.370 C 221.075 487.768, 221.020 487.874, 218.339 488.275 C 215.587 488.687, 215.599 488.705, 218.750 488.850 C 222.507 489.023, 223.016 487.563, 219.750 485.980 C 217.657 484.966, 217.628 484.993, 219.339 486.370 M 167 487.651 C 167 488.201, 168.125 489.708, 169.500 491 C 170.875 492.292, 172 492.899, 172 492.349 C 172 491.799, 170.875 490.292, 169.500 489 C 168.125 487.708, 167 487.101, 167 487.651 M 218.750 492.662 C 219.438 492.940, 220.563 492.940, 221.250 492.662 C 221.938 492.385, 221.375 492.158, 220 492.158 C 218.625 492.158, 218.063 492.385, 218.750 492.662 M 213.500 496 C 214.495 497.100, 215.535 498, 215.810 498 C 216.085 498, 215.495 497.100, 214.500 496 C 213.505 494.900, 212.465 494, 212.190 494 C 211.915 494, 212.505 494.900, 213.500 496 M 209.500 499 C 210.495 500.100, 211.535 501, 211.810 501 C 212.085 501, 211.495 500.100, 210.500 499 C 209.505 497.900, 208.465 497, 208.190 497 C 207.915 497, 208.505 497.900, 209.500 499 M 227.563 508 C 228.061 508.825, 228.476 509.837, 228.485 510.250 C 228.493 510.663, 228.875 511.038, 229.333 511.083 C 231.111 511.261, 230.921 510.241, 228.834 508.411 C 227.521 507.259, 227.016 507.096, 227.563 508" stroke="none" fill="#bcbb75" fill-rule="evenodd"/></svg>