<svg xmlns="http://www.w3.org/2000/svg" width="1080" height="1920" viewBox="0 0 1080 1920" version="1.1"><path d="M 570.462 109.250 C 570.200 109.938, 570.102 172.825, 570.243 249 L 570.500 387.500 681.750 387.754 L 793 388.009 793 280.034 L 793 172.060 778.469 152.280 C 770.477 141.401, 759.885 126.987, 754.930 120.250 L 745.921 108 658.429 108 C 589.356 108, 570.837 108.263, 570.462 109.250 M 576 248 L 576 382 682 382 L 788 382 788 280.500 L 788 179 764.700 179 C 747.911 179, 741.065 178.665, 740.200 177.800 C 739.318 176.918, 739 168.311, 739 145.300 L 739 114 657.500 114 L 576 114 576 248 M 745 145.300 L 745 173 765.517 173 L 786.034 173 778.179 162.250 C 759.312 136.427, 746.764 119.431, 745.915 118.550 C 745.361 117.975, 745 128.521, 745 145.300 M 191.753 150.035 C 180.487 151.930, 172.341 161.100, 168.628 176.064 C 166.313 185.397, 166.479 204.752, 169 219.500 C 170.100 225.934, 171 231.567, 171 232.017 C 171 232.467, 167.287 234.055, 162.750 235.545 C 137.303 243.901, 117.633 257.618, 111.063 271.587 C 104.159 286.267, 112.139 303.055, 132.358 316.384 C 141.180 322.200, 155.123 328.768, 164.199 331.384 C 167.334 332.287, 170.156 333.444, 170.472 333.954 C 170.787 334.465, 170.120 339.972, 168.988 346.191 C 165.246 366.764, 166.357 386.976, 171.923 399.560 C 180.104 418.054, 200.536 421.187, 226.128 407.872 C 234.854 403.333, 247.165 394.655, 254.596 387.804 L 259.010 383.736 263.820 388.235 C 275.817 399.456, 292.150 409.696, 304.849 413.958 C 313.664 416.915, 325.089 416.908, 331.401 413.941 C 347.914 406.180, 354.532 379.309, 348.451 344.721 C 347.676 340.314, 346.796 335.934, 346.496 334.988 C 346.050 333.581, 347.625 332.683, 355.155 330.054 C 380.800 321.098, 399.941 307.266, 406.250 293.130 C 410.591 283.401, 407.710 271.066, 398.854 261.457 C 390.257 252.131, 372.690 241.888, 355.229 236.020 C 350.446 234.413, 346.378 232.634, 346.189 232.068 C 346 231.501, 346.597 227.542, 347.516 223.269 C 348.435 218.996, 349.428 209.177, 349.724 201.450 C 350.842 172.248, 343.263 155.039, 327.231 150.379 C 312.092 145.978, 289.750 155.290, 266.168 175.830 L 258.836 182.217 255.168 179.102 C 229.030 156.907, 208.053 147.292, 191.753 150.035 M 190 163.690 C 182.272 167.687, 178.290 181.417, 179.324 200.500 C 179.817 209.597, 181.904 223.710, 183.484 228.634 C 183.745 229.446, 186.354 229.250, 192.674 227.944 C 197.528 226.940, 206.572 225.554, 212.771 224.863 L 224.042 223.606 228.862 216.999 C 231.514 213.365, 237.326 206.059, 241.778 200.764 L 249.874 191.135 244.683 186.701 C 222.616 167.848, 200.198 158.414, 190 163.690 M 307.203 164.443 C 303.740 165.730, 297.293 168.966, 292.877 171.636 C 284.434 176.740, 268 189.582, 268 191.076 C 268 191.557, 271.871 196.574, 276.602 202.225 C 281.333 207.876, 286.963 215, 289.111 218.056 L 293.018 223.612 304.259 224.866 C 310.442 225.555, 319.446 226.935, 324.270 227.932 C 329.093 228.929, 333.245 229.412, 333.497 229.005 C 335.036 226.515, 337.347 207.645, 337.418 197 C 337.509 183.190, 336.175 175.946, 332.293 169.159 C 328.015 161.682, 319.133 160.012, 307.203 164.443 M 251.432 208.750 C 247.787 213.012, 243.918 217.738, 242.834 219.250 L 240.864 222 258.482 222 C 273.337 222, 275.974 221.779, 275.300 220.593 C 273.864 218.067, 259.519 201.095, 258.780 201.047 C 258.383 201.021, 255.077 204.488, 251.432 208.750 M 705.369 215.423 C 695.031 217.788, 687.730 222.373, 683.222 229.330 C 680.893 232.925, 680.522 234.533, 680.533 241 C 680.558 255.301, 687.340 262.037, 706.336 266.628 C 723.761 270.840, 724.806 271.171, 726.930 273.149 C 728.073 274.215, 729 276.334, 729 277.884 C 729 288.400, 703.621 288.457, 686.684 277.980 C 679.054 273.260, 678.886 273.422, 679.215 285.205 L 679.500 295.409 684.500 297.221 C 691.269 299.673, 704.917 302.004, 712.381 301.983 C 720.506 301.960, 730.609 299.739, 736.754 296.624 C 751.732 289.035, 756.691 270.691, 746.808 259.434 C 742.083 254.052, 736.558 251.404, 724 248.500 C 707.840 244.763, 704.117 243.316, 703.410 240.496 C 702.507 236.898, 703.244 234.903, 706.324 232.606 C 708.761 230.789, 710.475 230.510, 718.824 230.576 C 726.868 230.639, 729.553 231.091, 734.744 233.253 C 738.178 234.684, 742.337 236.816, 743.987 237.991 C 745.637 239.165, 747.439 239.846, 747.993 239.504 C 748.554 239.157, 749 234.691, 749 229.416 C 749 220.012, 748.982 219.944, 746.253 218.906 C 735.540 214.833, 715.433 213.120, 705.369 215.423 M 622 223.500 L 622 231 632 231 L 642 231 641.944 252.750 C 641.879 277.606, 641.303 280.567, 636 283.312 C 633.184 284.769, 631.033 285.018, 625 284.585 C 620.875 284.288, 616.038 283.760, 614.250 283.410 L 611 282.773 611 291.325 L 611 299.877 615.750 300.640 C 622.937 301.793, 639.965 301.515, 644.657 300.167 C 651.532 298.192, 658.115 293.089, 660.958 287.530 L 663.500 282.559 663.788 249.280 L 664.077 216 643.038 216 L 622 216 622 223.500 M 238.325 234.741 L 231.151 235.085 225 244.579 C 218.130 255.185, 205.247 278.349, 204.397 281.626 C 204.060 282.924, 205.081 286.232, 207.021 290.126 C 210.646 297.404, 227.199 325.417, 229.783 328.646 C 231.388 330.652, 232.639 330.826, 249 331.322 C 258.625 331.614, 270.954 331.549, 276.397 331.177 L 286.294 330.500 292.639 320.500 C 300.192 308.597, 313 284.953, 313 282.915 C 313 280.932, 299.054 255.510, 291.874 244.403 L 285.993 235.307 273.840 234.653 C 262.001 234.017, 252.980 234.039, 238.325 234.741 M 200.500 239.084 C 194.450 240.141, 188.957 241.208, 188.293 241.455 C 187.413 241.783, 187.721 243.743, 189.431 248.702 C 193.575 260.718, 196.126 267, 196.861 267 C 197.256 267, 199.331 263.738, 201.473 259.750 C 203.615 255.762, 207.309 249.362, 209.683 245.526 C 212.058 241.690, 214 238.203, 214 237.776 C 214 236.766, 213.472 236.817, 200.500 239.084 M 303 237.564 C 303 238.148, 318.462 265.298, 319.747 266.971 C 320.399 267.819, 321.877 264.663, 326.016 253.588 C 328.837 246.041, 329.747 242.462, 328.968 241.980 C 328.349 241.598, 323.490 240.510, 318.171 239.565 C 312.852 238.619, 307.262 237.619, 305.750 237.343 C 304.238 237.067, 303 237.166, 303 237.564 M 165.526 247.573 C 147.502 253.897, 130.086 264.738, 124.577 273.063 C 118.560 282.155, 120.335 289.466, 130.945 299.288 C 139.279 307.004, 158.540 317.297, 171.164 320.780 L 174.829 321.792 178.414 311.412 C 180.386 305.703, 183.750 296.974, 185.888 292.013 L 189.777 282.994 186.202 274.747 C 184.236 270.211, 180.961 261.775, 178.926 256 C 176.846 250.100, 174.628 245.418, 173.862 245.313 C 173.113 245.210, 169.361 246.227, 165.526 247.573 M 338.985 254.250 C 337.177 259.337, 333.965 267.515, 331.848 272.422 C 329.732 277.330, 328 281.900, 328 282.579 C 328 283.258, 329.331 286.781, 330.958 290.407 C 332.585 294.033, 335.477 301.163, 337.384 306.250 C 339.292 311.338, 341.317 316.719, 341.886 318.208 L 342.919 320.916 348.209 319.378 C 355.543 317.247, 372.572 309.044, 379.666 304.227 C 389.650 297.447, 396 289.198, 396 283.010 C 396 274.879, 385.892 264.409, 370.037 256.118 C 362.583 252.219, 344.668 245, 342.449 245 C 342.353 245, 340.794 249.162, 338.985 254.250 M 249.463 257.591 C 240.368 260.821, 233.288 269.814, 232.299 279.393 C 231.193 290.108, 235.246 298.980, 243.943 304.881 C 248.104 307.705, 250.084 308.345, 255.966 308.765 C 271.391 309.869, 283.378 299.951, 284.737 284.961 C 286.475 265.798, 267.599 251.152, 249.463 257.591 M 316.484 304.509 C 314.348 308.354, 310.225 315.438, 307.321 320.250 C 304.418 325.063, 302.546 329, 303.160 329 C 306.371 329, 328.629 324.751, 329.398 323.991 C 330.302 323.098, 326.925 312.482, 322.594 302.598 L 320.367 297.518 316.484 304.509 M 193.959 304.750 C 189.933 315.349, 187.001 324.334, 187.428 324.761 C 188.193 325.526, 210.450 329.073, 212.667 328.783 C 214.700 328.517, 214.526 328.007, 209.843 320.500 C 207.098 316.100, 203.305 309.462, 201.414 305.750 C 199.522 302.038, 197.563 299, 197.059 299 C 196.556 299, 195.161 301.587, 193.959 304.750 M 321.500 338.684 C 314.900 339.914, 306.052 341.224, 301.838 341.596 C 297.624 341.968, 293.797 342.549, 293.333 342.886 C 292.870 343.224, 289.301 347.775, 285.402 353 C 281.504 358.225, 276.009 365.195, 273.192 368.488 L 268.069 374.476 271.284 377.826 C 280.367 387.287, 295.845 397.459, 307.401 401.562 C 317.805 405.255, 324.582 404.767, 329.535 399.967 C 335.205 394.471, 337.245 387.615, 337.774 372.278 C 338.202 359.865, 336.209 340.708, 334.152 337.474 C 333.720 336.795, 329.445 337.204, 321.500 338.684 M 181.541 345.658 C 179.296 357.263, 178.479 375.887, 179.881 383.500 C 181.443 391.980, 185.693 399.841, 190 402.216 C 192.859 403.793, 194.783 404.050, 200.500 403.619 C 206.271 403.184, 209.258 402.219, 217.513 398.124 C 228.009 392.917, 237.587 386.420, 245.391 379.215 L 250.031 374.930 242.250 365.675 C 237.970 360.585, 232.255 353.406, 229.549 349.721 C 225.703 344.483, 223.961 342.922, 221.565 342.567 C 219.879 342.317, 211.750 341.173, 203.500 340.025 C 195.250 338.876, 187.319 337.684, 185.876 337.376 C 183.291 336.823, 183.227 336.946, 181.541 345.658 M 242.384 346.138 C 246.643 352.219, 258.354 365.049, 259.344 364.719 C 260.539 364.320, 273.468 348.771, 275.116 345.750 C 276.008 344.113, 274.930 344, 258.478 344 L 240.887 344 242.384 346.138 M 735.165 482.640 C 737.008 486.806, 737.057 487.838, 735.930 498.767 C 731.395 542.758, 748.583 593.298, 779 625.409 C 792.524 639.686, 807.094 651.368, 818.838 657.349 C 840.636 668.451, 859.041 672.916, 886.410 673.739 C 903.668 674.258, 904.295 674.209, 903.612 672.389 C 902.346 669.015, 896.666 660.104, 890.254 651.433 L 883.983 642.952 891.975 649.858 C 904.921 661.045, 913.315 663.792, 915.327 657.500 C 917.089 651.992, 916.650 618.497, 914.689 608.730 C 910.735 589.040, 902.233 569.502, 890.312 552.709 C 881.764 540.669, 865.331 524.625, 853.500 516.770 C 841.812 509.010, 820.313 498.429, 807.500 494.131 C 795.332 490.049, 780.846 487.230, 765.371 485.932 C 755.331 485.090, 750.377 484.119, 742.848 481.521 L 733.196 478.190 735.165 482.640 M 401 548.500 L 401 569 408.500 569 L 416 569 416 562 L 416 555 422 555 L 428 555 428 562 L 428 569 435 569 L 442 569 442 548.500 L 442 528 435 528 L 428 528 428 534.500 L 428 541 422 541 L 416 541 416 534.500 L 416 528 408.500 528 L 401 528 401 548.500 M 448 535 L 448 542 454 542 L 460 542 460 555.500 L 460 569 467 569 L 474 569 474 555.548 L 474 542.095 480.250 541.798 L 486.500 541.500 486.796 534.750 L 487.091 528 467.546 528 L 448 528 448 535 M 493 548.500 L 493 569 499.464 569 L 505.928 569 506.214 559.250 L 506.500 549.500 510.811 556 C 513.183 559.575, 515.518 562.500, 516 562.500 C 516.482 562.500, 518.817 559.575, 521.189 556 L 525.500 549.500 525.786 559.250 L 526.072 569 533.036 569 L 540 569 540 548.500 L 540 528 532.250 528.017 L 524.500 528.035 520.641 534.517 C 518.518 538.083, 516.474 541, 516.098 541 C 515.723 541, 513.704 538.075, 511.613 534.500 L 507.811 528 500.405 528 L 493 528 493 548.500 M 546 548.500 L 546 569 563 569 L 580 569 580 562 L 580 555 570.500 555 L 561 555 561 541.500 L 561 528 553.500 528 L 546 528 546 548.500 M 382 591.632 C 382 593.630, 386.275 643.153, 391.500 701.683 C 396.725 760.214, 401 808.873, 401 809.815 C 401 811.222, 408.953 813.727, 445.577 823.853 C 476.289 832.345, 490.985 835.983, 492.827 835.549 C 494.297 835.204, 514.513 829.670, 537.750 823.253 C 575.687 812.777, 580.005 811.378, 580.049 809.543 C 580.075 808.419, 584.508 758.450, 589.899 698.500 C 595.290 638.550, 599.516 589.163, 599.291 588.750 C 599.066 588.337, 550.084 588, 490.441 588 L 382 588 382 591.632 M 233.359 610.923 C 228.911 613.635, 228.188 615.355, 232.325 613.382 C 238.955 610.220, 245 614.160, 245 621.642 C 245 626.503, 243.817 629.661, 239.679 635.846 C 237.234 639.501, 237.092 640.021, 238.788 639.113 C 243.327 636.684, 250.928 624.328, 250.978 619.297 C 251.062 610.867, 241.165 606.163, 233.359 610.923 M 218 627.144 C 205.006 635.769, 177.366 649, 172.343 649 C 169.852 649, 170.975 646.595, 175.750 641.701 L 180.500 636.833 176.500 639.153 C 171.031 642.324, 161.670 651.527, 162.247 653.165 C 162.901 655.020, 169.030 654.486, 176.811 651.896 C 192.459 646.689, 221.997 629.611, 224.973 624.051 C 225.576 622.923, 225.942 622.037, 225.785 622.083 C 225.628 622.129, 222.125 624.406, 218 627.144 M 422 635.846 C 422 636.862, 423.575 655.188, 425.500 676.571 C 427.425 697.955, 429 715.799, 429 716.225 C 429 716.651, 450.368 717, 476.485 717 L 523.969 717 523.398 722.750 C 523.084 725.913, 522.303 733.863, 521.663 740.417 L 520.500 752.335 505.500 756.347 L 490.500 760.359 477.500 757.036 C 458.706 752.232, 460.323 753.334, 459.567 744.816 C 459.210 740.792, 458.672 735.813, 458.371 733.750 L 457.824 730 444.471 730 C 437.127 730, 430.934 730.337, 430.709 730.750 C 430.484 731.163, 431.102 739.825, 432.082 750 C 433.062 760.175, 433.895 769.659, 433.932 771.076 C 433.998 773.589, 434.683 773.842, 461.750 781.359 C 477.012 785.598, 490.214 789.051, 491.087 789.033 C 492.615 789.001, 546.189 774.144, 546.732 773.602 C 547.115 773.218, 554 696.183, 554 692.275 L 554 689 504.137 689 L 454.274 689 453.583 679.250 C 453.203 673.888, 452.634 667.813, 452.319 665.750 L 451.744 662 504.243 662 L 556.742 662 557.344 657.250 C 557.675 654.638, 558.248 648.337, 558.617 643.250 L 559.287 634 490.643 634 C 424.574 634, 422 634.069, 422 635.846 M 216 644.527 C 208.183 649.791, 192.246 657.023, 186.876 657.743 C 183.627 658.179, 183 657.974, 183 656.477 C 183 654.769, 182.912 654.770, 181 656.500 C 179.900 657.495, 179 659.365, 179 660.655 C 179 662.753, 179.455 663, 183.318 663 C 189.259 663, 196.918 660.568, 206.988 655.483 C 214.747 651.566, 230 641.617, 230 640.474 C 230 640.213, 228.313 640.034, 226.250 640.075 C 223.558 640.129, 220.667 641.384, 216 644.527 M 257.661 653.946 C 256.796 658.272, 245.070 666.168, 223.500 676.949 C 198.965 689.211, 177 696.246, 177 691.841 C 177 691.203, 179.137 688.684, 181.750 686.241 C 186.274 682.011, 186.337 681.882, 183.069 683.519 C 178.491 685.813, 170 694.636, 170 697.098 C 170 701.491, 175.161 700.729, 196 693.255 C 226.622 682.272, 260 661.290, 260 653.022 C 260 649.948, 258.328 650.608, 257.661 653.946 M 219.326 659.726 C 212.570 664.066, 198.586 670, 195.116 670 C 194.044 670, 192.982 669.447, 192.757 668.770 C 192.518 668.053, 191.568 668.729, 190.479 670.392 C 188.649 673.185, 188.651 673.272, 190.556 674.700 C 194.087 677.346, 208.433 673.949, 218.329 668.123 C 223.232 665.236, 233.863 656.954, 233.951 655.951 C 233.978 655.649, 232.179 655.424, 229.953 655.451 C 226.952 655.487, 224.204 656.593, 219.326 659.726 M 265.694 657.940 C 260.329 667.023, 228.507 686.179, 202.500 695.982 C 196.640 698.191, 195.570 698.831, 198.500 698.377 C 207.918 696.915, 236.963 683.851, 249.741 675.329 C 258.512 669.479, 266.815 661.583, 267.637 658.311 C 268.517 654.805, 267.645 654.639, 265.694 657.940 M 155 903.026 L 155 922.052 170.250 921.776 L 185.500 921.500 185.798 915.250 L 186.095 909 177.048 909 L 168 909 168 902.500 L 168 896 177 896 L 186 896 186 890 L 186 884 170.500 884 L 155 884 155 903.026 M 191 896 L 191 908 200 908 C 211.615 908, 211.822 909.829, 200.250 910.211 L 191.500 910.500 191.200 916.250 L 190.900 922 206.450 922 L 222 922 222 909.500 L 222 897 213.559 897 C 208.916 897, 204.840 896.550, 204.500 896 C 204.105 895.361, 207.156 895, 212.941 895 L 222 895 222 889.500 L 222 884 206.500 884 L 191 884 191 896 M 228 896 L 228 908 236.500 908 C 241.500 908, 245 908.412, 245 909 C 245 909.588, 241.500 910, 236.500 910 L 228 910 228 916 L 228 922 243 922 L 258 922 258 909.500 L 258 897 249.500 897 C 244.500 897, 241 896.588, 241 896 C 241 895.412, 244.500 895, 249.500 895 L 258 895 258 889.500 L 258 884 243 884 L 228 884 228 896 M 108.438 943.250 C 108.746 945.587, 112.873 991.375, 117.609 1045 C 122.345 1098.625, 126.287 1142.579, 126.370 1142.677 C 126.835 1143.224, 206.447 1165, 207.983 1165 C 209.615 1165, 235.950 1157.890, 276.750 1146.434 C 285.226 1144.054, 290 1142.236, 290 1141.387 C 290 1139.516, 306.805 950.639, 307.540 944.250 L 308.144 939 208.011 939 L 107.877 939 108.438 943.250 M 470.160 945.307 C 466.663 949.520, 464.918 966.817, 467.110 975.524 C 468.161 979.697, 468.061 980.137, 465.243 983.717 C 461.299 988.729, 458.559 994.271, 456.468 1001.463 C 455.083 1006.227, 454.853 1009.889, 455.278 1020.433 C 455.568 1027.620, 456.441 1035.797, 457.218 1038.604 L 458.632 1043.709 439.066 1044.321 C 421.300 1044.878, 400.445 1047.142, 399.053 1048.666 C 398.529 1049.239, 400.565 1049.029, 416 1046.914 C 419.575 1046.424, 430.553 1045.720, 440.395 1045.349 C 457.103 1044.720, 458.379 1044.798, 459.645 1046.529 C 460.390 1047.548, 461 1048.708, 461 1049.106 C 461 1049.504, 457.512 1050.113, 453.250 1050.459 C 433.191 1052.090, 415.130 1054.771, 405.143 1057.600 C 396.840 1059.953, 399.638 1060.209, 409.686 1058.016 C 423.478 1055.005, 437.263 1053.139, 450.500 1052.491 L 462.500 1051.903 465.564 1056.702 C 471.946 1066.695, 488.029 1075.697, 504.882 1078.708 C 509.622 1079.554, 514.098 1080.416, 514.829 1080.622 C 515.732 1080.878, 515.064 1082.276, 512.739 1084.991 C 510.859 1087.188, 508.803 1090.715, 508.169 1092.830 C 507.189 1096.101, 506.383 1096.885, 502.759 1098.087 C 500.416 1098.864, 495.542 1099.500, 491.927 1099.500 C 483.519 1099.500, 478.971 1096.679, 472.060 1087.178 C 466.478 1079.503, 459.646 1075, 453.583 1075 C 447.478 1075, 447.907 1077.367, 455.272 1084.323 C 460.149 1088.927, 462.845 1092.572, 465.864 1098.641 C 472.678 1112.342, 480.089 1116.422, 497.074 1115.821 L 506.147 1115.500 505.823 1129.173 C 505.516 1142.158, 505.374 1142.980, 503 1145.520 C 501.625 1146.991, 498.724 1149.105, 496.554 1150.218 C 492.778 1152.153, 492.692 1152.304, 494.554 1153.708 C 497.412 1155.863, 507.851 1154.873, 512.489 1152.007 C 519.188 1147.867, 519.444 1146.904, 520 1123.832 C 520.434 1105.810, 520.731 1102.835, 522.250 1101.319 C 523.917 1099.655, 524 1100.556, 524 1120.236 C 524 1144.419, 523.143 1149.729, 518.392 1154.988 C 516.526 1157.053, 515 1159.250, 515 1159.871 C 515 1160.553, 516.901 1161, 519.800 1161 C 525.534 1161, 531.309 1157.680, 535.041 1152.238 C 537.470 1148.695, 537.504 1148.348, 537.812 1123.326 C 538.112 1099.046, 538.205 1098, 540.062 1098 C 541.925 1098, 542 1098.922, 542 1121.804 C 542 1145.107, 542.052 1145.711, 544.468 1150.559 C 547.378 1156.400, 553.663 1161, 558.732 1161 C 563.277 1161, 563.829 1158.803, 560.492 1153.988 C 556.992 1148.937, 555.840 1138.629, 556.225 1115.799 C 556.478 1100.799, 556.620 1099.699, 558 1102 C 559.150 1103.916, 559.617 1109.215, 560 1124.679 C 560.455 1143.041, 560.686 1145.113, 562.565 1147.679 C 565.320 1151.445, 570.272 1153.780, 577.229 1154.598 C 582.185 1155.180, 583.052 1155.029, 583.646 1153.480 C 584.152 1152.162, 583.353 1150.902, 580.625 1148.714 C 574.294 1143.635, 574 1142.376, 574 1120.365 C 574 1097.500, 572.871 1091.546, 567.300 1085.038 C 564.951 1082.293, 564.268 1080.877, 565.171 1080.621 C 565.902 1080.413, 570.705 1079.491, 575.845 1078.572 C 593.361 1075.439, 604.831 1069.310, 612.388 1059.045 C 614.831 1055.727, 616.980 1052.575, 617.165 1052.041 C 617.912 1049.876, 660.861 1054.869, 673.765 1058.620 C 676.726 1059.481, 679.388 1059.945, 679.682 1059.652 C 681.437 1057.896, 652.379 1052.613, 632.041 1050.990 C 624.639 1050.400, 618.470 1049.803, 618.331 1049.664 C 618.193 1049.526, 618.357 1048.352, 618.696 1047.055 L 619.312 1044.698 638.406 1045.349 C 648.908 1045.707, 660.425 1046.406, 664 1046.902 C 678.979 1048.982, 681.473 1049.241, 680.947 1048.666 C 679.524 1047.109, 658.537 1044.868, 640.173 1044.312 C 620.150 1043.706, 619.855 1043.666, 620.419 1041.598 C 620.734 1040.444, 621.517 1034.236, 622.159 1027.803 C 624.132 1008.031, 620.851 994.114, 611.479 982.500 C 608.085 978.295, 607.548 977.023, 608.103 974.500 C 610.035 965.721, 607.953 948.563, 604.540 945.122 C 603.378 943.951, 602.115 943.983, 596.146 945.331 C 589.741 946.777, 576.209 952.797, 571.651 956.227 C 570.067 957.418, 568.844 957.404, 563.151 956.128 C 553.161 953.888, 525.917 954.007, 514.894 956.338 L 506.287 958.158 501.286 955.081 C 494.018 950.609, 484.279 946.407, 478.201 945.121 C 471.575 943.719, 471.476 943.722, 470.160 945.307 M 176.990 980.749 L 145.479 981.027 146.490 992.764 L 147.500 1004.500 181.500 1005.108 C 200.200 1005.443, 221.746 1005.781, 229.379 1005.858 L 243.258 1006 242.672 1011.750 C 242.349 1014.913, 241.789 1020.538, 241.426 1024.250 L 240.767 1031 195.267 1031 L 149.767 1031 150.426 1037.750 C 150.789 1041.463, 151.349 1047.088, 151.672 1050.250 L 152.258 1056 195.641 1056 L 239.024 1056 238.518 1059.750 C 237.875 1064.525, 236 1084.814, 236 1087.003 C 236 1089.178, 209.426 1096.561, 205.235 1095.549 C 203.731 1095.186, 197.468 1093.516, 191.318 1091.838 L 180.136 1088.788 179.528 1082.144 C 179.193 1078.490, 178.692 1074.037, 178.414 1072.250 L 177.909 1069 165.502 1069 L 153.094 1069 153.608 1073.750 C 153.891 1076.362, 154.712 1084.963, 155.432 1092.861 C 156.153 1100.760, 157.222 1107.519, 157.808 1107.882 C 158.395 1108.244, 169.953 1111.621, 183.494 1115.387 L 208.113 1122.233 232.806 1115.475 C 246.388 1111.758, 257.917 1108.341, 258.427 1107.881 C 259.359 1107.041, 270.992 982.152, 270.269 980.750 C 269.907 980.048, 256.375 980.048, 176.990 980.749 M 500.054 1009.100 C 490.237 1010.794, 482.573 1017.111, 478.334 1027 C 475.904 1032.669, 476.943 1047.158, 480.239 1053.563 C 483.388 1059.683, 489.514 1065.423, 495.830 1068.173 C 506.257 1072.713, 518.022 1074.323, 540.500 1074.286 C 578.958 1074.224, 590.779 1070.318, 598.215 1055.216 C 601.266 1049.019, 601.500 1047.830, 601.500 1038.522 C 601.500 1030.565, 601.108 1027.780, 599.599 1025.007 C 591.776 1010.636, 583.527 1007.497, 558 1009.180 C 545.360 1010.012, 521.832 1009.701, 509.500 1008.538 C 507.300 1008.330, 503.049 1008.583, 500.054 1009.100 M 501.656 1027.133 C 497.112 1029.774, 495.624 1040.231, 499.004 1045.775 C 503.043 1052.400, 509.527 1051.769, 512.584 1044.454 C 517.007 1033.867, 509.780 1022.410, 501.656 1027.133 M 570.674 1028.976 C 567.678 1032.536, 566.584 1036.831, 567.552 1041.235 C 570.516 1054.731, 584 1052.526, 584 1038.546 C 584 1027.837, 576.290 1022.301, 570.674 1028.976 M 536.718 1053.250 C 536.093 1054.995, 537.798 1058, 539.413 1058 C 541.402 1058, 543.124 1055.488, 542.410 1053.627 C 541.678 1051.718, 537.370 1051.432, 536.718 1053.250 M 532 1063 C 532 1065.259, 536.112 1068, 539.500 1068 C 542.888 1068, 547 1065.259, 547 1063 C 547 1061.403, 545.584 1061.837, 543.732 1064 C 542.790 1065.100, 540.886 1066, 539.500 1066 C 538.114 1066, 536.210 1065.100, 535.268 1064 C 533.416 1061.837, 532 1061.403, 532 1063 M 369.741 1178.429 C 364.848 1180.175, 363.265 1181.561, 360.927 1186.143 C 358.284 1191.325, 358.455 1198.305, 361.379 1204.500 C 362.677 1207.250, 367.968 1215.125, 373.137 1222 C 382.342 1234.243, 382.636 1234.806, 387.462 1249.422 C 393.159 1266.676, 401.110 1283.396, 406.921 1290.342 C 410.045 1294.076, 410.760 1295.580, 410.045 1296.915 C 409.536 1297.868, 407.683 1304.239, 405.928 1311.073 C 398.263 1340.932, 402.272 1370.667, 416.079 1386.353 C 422.789 1393.975, 429.905 1396.258, 435.509 1392.586 C 439.596 1389.908, 440.868 1386.921, 442.584 1375.969 C 443.487 1370.211, 444.584 1364.840, 445.023 1364.034 C 445.590 1362.992, 447.128 1365.233, 450.335 1371.771 C 456.064 1383.455, 461.679 1390.577, 472.593 1400 C 477.371 1404.125, 484.131 1410.088, 487.615 1413.250 C 491.099 1416.412, 494.260 1419, 494.639 1419 C 495.018 1419, 492.415 1415.963, 488.854 1412.250 C 481.029 1404.090, 471.529 1390.532, 462.672 1374.878 C 456.071 1363.212, 447.937 1345.886, 446.651 1340.750 C 446.272 1339.237, 445.551 1338, 445.048 1338 C 443.412 1338, 437.118 1346.501, 434.468 1352.290 C 432.684 1356.187, 431.375 1361.827, 430.251 1370.470 C 429.159 1378.856, 428.212 1383, 427.387 1383 C 422.257 1383, 415.100 1369.251, 412.516 1354.429 C 409.712 1338.350, 410.895 1324.799, 416.529 1308.484 C 421.492 1294.110, 421.227 1291.395, 414.173 1284.317 C 409.351 1279.479, 404.299 1269.077, 399.079 1253.240 C 392.719 1233.945, 390.294 1228.865, 382.663 1218.851 C 372.870 1206.002, 369.093 1200.011, 368.377 1196.198 C 367.804 1193.143, 368.089 1192.320, 370.411 1190.323 C 373.710 1187.485, 374.483 1187.468, 382.171 1190.058 C 390.897 1192.997, 400.464 1198.032, 408.177 1203.745 L 414.854 1208.690 425.774 1209.354 C 438.731 1210.141, 444.429 1211.694, 456.488 1217.728 C 492.231 1235.613, 525.442 1270.419, 538.807 1304 C 540.449 1308.125, 544.134 1316.450, 546.997 1322.500 C 549.859 1328.550, 554.592 1338.737, 557.514 1345.137 C 563.644 1358.565, 569.915 1368.899, 573.131 1370.873 C 574.361 1371.629, 580.768 1374.027, 587.368 1376.202 C 593.968 1378.377, 601.873 1381.437, 604.934 1383 C 611.954 1386.587, 640.207 1406.122, 640.757 1407.770 C 641.058 1408.673, 639.105 1409, 633.415 1409 C 629.152 1409, 622.702 1409.484, 619.082 1410.076 C 609.937 1411.572, 593.973 1416.907, 593.286 1418.697 C 592.566 1420.573, 595.186 1426.115, 599.704 1432.274 C 604.271 1438.501, 618.851 1448.891, 631.543 1454.965 C 641.621 1459.787, 656.122 1468.976, 661.240 1473.781 C 662.746 1475.196, 664.244 1476.089, 664.568 1475.766 C 665.745 1474.588, 662.294 1469.932, 652.306 1459.221 C 642.616 1448.830, 639.621 1446.458, 621.369 1434.726 C 617.446 1432.205, 613.281 1428.800, 612.113 1427.159 L 609.990 1424.177 620.815 1421.588 C 626.769 1420.165, 632.937 1419, 634.522 1419 C 639.468 1419, 655 1414.778, 655 1413.434 C 655 1410.788, 645.264 1400.420, 635.598 1392.774 C 619.889 1380.346, 607.559 1372.598, 594.500 1366.948 C 587.900 1364.093, 581.551 1360.893, 580.391 1359.837 C 578.417 1358.040, 557.484 1314.656, 549.677 1296.181 C 545.118 1285.396, 541.495 1279.474, 530.384 1264.657 C 516.185 1245.722, 496.721 1228.030, 474.327 1213.701 C 459.015 1203.904, 445.886 1199.286, 429.963 1198.096 C 420.487 1197.387, 420.386 1197.351, 413.957 1192.441 C 403.462 1184.426, 385.219 1176.919, 376.540 1177.044 C 374.868 1177.068, 371.808 1177.691, 369.741 1178.429 M 420.607 1229.827 C 420.326 1230.281, 421.773 1232.682, 423.822 1235.162 C 425.871 1237.641, 428.393 1241.544, 429.426 1243.835 C 431.572 1248.594, 432.375 1248.904, 434.396 1245.750 C 439.023 1238.529, 433.667 1229, 424.982 1229 C 422.857 1229, 420.888 1229.372, 420.607 1229.827" stroke="none" fill="#256c85" fill-rule="evenodd"/><path d="M 0 960.001 L 0 1920.002 540.250 1919.751 L 1080.500 1919.500 1080.751 959.750 L 1081.001 0 540.501 0 L 0 0 0 960.001 M 0.498 960.500 C 0.498 1488.500, 0.611 1704.350, 0.750 1440.167 C 0.889 1175.985, 0.889 743.985, 0.750 480.167 C 0.611 216.350, 0.498 432.500, 0.498 960.500 M 570.462 109.250 C 570.200 109.938, 570.102 172.825, 570.243 249 L 570.500 387.500 681.750 387.754 L 793 388.009 793 280.034 L 793 172.060 778.469 152.280 C 770.477 141.401, 759.885 126.987, 754.930 120.250 L 745.921 108 658.429 108 C 589.356 108, 570.837 108.263, 570.462 109.250 M 576 248 L 576 382 682 382 L 788 382 788 280.500 L 788 179 764.700 179 C 747.911 179, 741.065 178.665, 740.200 177.800 C 739.318 176.918, 739 168.311, 739 145.300 L 739 114 657.500 114 L 576 114 576 248 M 745 145.300 L 745 173 765.517 173 L 786.034 173 778.179 162.250 C 759.312 136.427, 746.764 119.431, 745.915 118.550 C 745.361 117.975, 745 128.521, 745 145.300 M 191.753 150.035 C 180.487 151.930, 172.341 161.100, 168.628 176.064 C 166.313 185.397, 166.479 204.752, 169 219.500 C 170.100 225.934, 171 231.567, 171 232.017 C 171 232.467, 167.287 234.055, 162.750 235.545 C 137.303 243.901, 117.633 257.618, 111.063 271.587 C 104.159 286.267, 112.139 303.055, 132.358 316.384 C 141.180 322.200, 155.123 328.768, 164.199 331.384 C 167.334 332.287, 170.156 333.444, 170.472 333.954 C 170.787 334.465, 170.120 339.972, 168.988 346.191 C 165.246 366.764, 166.357 386.976, 171.923 399.560 C 180.104 418.054, 200.536 421.187, 226.128 407.872 C 234.854 403.333, 247.165 394.655, 254.596 387.804 L 259.010 383.736 263.820 388.235 C 275.817 399.456, 292.150 409.696, 304.849 413.958 C 313.664 416.915, 325.089 416.908, 331.401 413.941 C 347.914 406.180, 354.532 379.309, 348.451 344.721 C 347.676 340.314, 346.796 335.934, 346.496 334.988 C 346.050 333.581, 347.625 332.683, 355.155 330.054 C 380.800 321.098, 399.941 307.266, 406.250 293.130 C 410.591 283.401, 407.710 271.066, 398.854 261.457 C 390.257 252.131, 372.690 241.888, 355.229 236.020 C 350.446 234.413, 346.378 232.634, 346.189 232.068 C 346 231.501, 346.597 227.542, 347.516 223.269 C 348.435 218.996, 349.428 209.177, 349.724 201.450 C 350.842 172.248, 343.263 155.039, 327.231 150.379 C 312.092 145.978, 289.750 155.290, 266.168 175.830 L 258.836 182.217 255.168 179.102 C 229.030 156.907, 208.053 147.292, 191.753 150.035 M 190 163.690 C 182.272 167.687, 178.290 181.417, 179.324 200.500 C 179.817 209.597, 181.904 223.710, 183.484 228.634 C 183.745 229.446, 186.354 229.250, 192.674 227.944 C 197.528 226.940, 206.572 225.554, 212.771 224.863 L 224.042 223.606 228.862 216.999 C 231.514 213.365, 237.326 206.059, 241.778 200.764 L 249.874 191.135 244.683 186.701 C 222.616 167.848, 200.198 158.414, 190 163.690 M 307.203 164.443 C 303.740 165.730, 297.293 168.966, 292.877 171.636 C 284.434 176.740, 268 189.582, 268 191.076 C 268 191.557, 271.871 196.574, 276.602 202.225 C 281.333 207.876, 286.963 215, 289.111 218.056 L 293.018 223.612 304.259 224.866 C 310.442 225.555, 319.446 226.935, 324.270 227.932 C 329.093 228.929, 333.245 229.412, 333.497 229.005 C 335.036 226.515, 337.347 207.645, 337.418 197 C 337.509 183.190, 336.175 175.946, 332.293 169.159 C 328.015 161.682, 319.133 160.012, 307.203 164.443 M 251.432 208.750 C 247.787 213.012, 243.918 217.738, 242.834 219.250 L 240.864 222 258.482 222 C 273.337 222, 275.974 221.779, 275.300 220.593 C 273.864 218.067, 259.519 201.095, 258.780 201.047 C 258.383 201.021, 255.077 204.488, 251.432 208.750 M 705.369 215.423 C 695.031 217.788, 687.730 222.373, 683.222 229.330 C 680.893 232.925, 680.522 234.533, 680.533 241 C 680.558 255.301, 687.340 262.037, 706.336 266.628 C 723.761 270.840, 724.806 271.171, 726.930 273.149 C 728.073 274.215, 729 276.334, 729 277.884 C 729 288.400, 703.621 288.457, 686.684 277.980 C 679.054 273.260, 678.886 273.422, 679.215 285.205 L 679.500 295.409 684.500 297.221 C 691.269 299.673, 704.917 302.004, 712.381 301.983 C 720.506 301.960, 730.609 299.739, 736.754 296.624 C 751.732 289.035, 756.691 270.691, 746.808 259.434 C 742.083 254.052, 736.558 251.404, 724 248.500 C 707.840 244.763, 704.117 243.316, 703.410 240.496 C 702.507 236.898, 703.244 234.903, 706.324 232.606 C 708.761 230.789, 710.475 230.510, 718.824 230.576 C 726.868 230.639, 729.553 231.091, 734.744 233.253 C 738.178 234.684, 742.337 236.816, 743.987 237.991 C 745.637 239.165, 747.439 239.846, 747.993 239.504 C 748.554 239.157, 749 234.691, 749 229.416 C 749 220.012, 748.982 219.944, 746.253 218.906 C 735.540 214.833, 715.433 213.120, 705.369 215.423 M 622 223.500 L 622 231 632 231 L 642 231 641.944 252.750 C 641.879 277.606, 641.303 280.567, 636 283.312 C 633.184 284.769, 631.033 285.018, 625 284.585 C 620.875 284.288, 616.038 283.760, 614.250 283.410 L 611 282.773 611 291.325 L 611 299.877 615.750 300.640 C 622.937 301.793, 639.965 301.515, 644.657 300.167 C 651.532 298.192, 658.115 293.089, 660.958 287.530 L 663.500 282.559 663.788 249.280 L 664.077 216 643.038 216 L 622 216 622 223.500 M 238.325 234.741 L 231.151 235.085 225 244.579 C 218.130 255.185, 205.247 278.349, 204.397 281.626 C 204.060 282.924, 205.081 286.232, 207.021 290.126 C 210.646 297.404, 227.199 325.417, 229.783 328.646 C 231.388 330.652, 232.639 330.826, 249 331.322 C 258.625 331.614, 270.954 331.549, 276.397 331.177 L 286.294 330.500 292.639 320.500 C 300.192 308.597, 313 284.953, 313 282.915 C 313 280.932, 299.054 255.510, 291.874 244.403 L 285.993 235.307 273.840 234.653 C 262.001 234.017, 252.980 234.039, 238.325 234.741 M 200.500 239.084 C 194.450 240.141, 188.957 241.208, 188.293 241.455 C 187.413 241.783, 187.721 243.743, 189.431 248.702 C 193.575 260.718, 196.126 267, 196.861 267 C 197.256 267, 199.331 263.738, 201.473 259.750 C 203.615 255.762, 207.309 249.362, 209.683 245.526 C 212.058 241.690, 214 238.203, 214 237.776 C 214 236.766, 213.472 236.817, 200.500 239.084 M 303 237.564 C 303 238.148, 318.462 265.298, 319.747 266.971 C 320.399 267.819, 321.877 264.663, 326.016 253.588 C 328.837 246.041, 329.747 242.462, 328.968 241.980 C 328.349 241.598, 323.490 240.510, 318.171 239.565 C 312.852 238.619, 307.262 237.619, 305.750 237.343 C 304.238 237.067, 303 237.166, 303 237.564 M 165.526 247.573 C 147.502 253.897, 130.086 264.738, 124.577 273.063 C 118.560 282.155, 120.335 289.466, 130.945 299.288 C 139.279 307.004, 158.540 317.297, 171.164 320.780 L 174.829 321.792 178.414 311.412 C 180.386 305.703, 183.750 296.974, 185.888 292.013 L 189.777 282.994 186.202 274.747 C 184.236 270.211, 180.961 261.775, 178.926 256 C 176.846 250.100, 174.628 245.418, 173.862 245.313 C 173.113 245.210, 169.361 246.227, 165.526 247.573 M 338.985 254.250 C 337.177 259.337, 333.965 267.515, 331.848 272.422 C 329.732 277.330, 328 281.900, 328 282.579 C 328 283.258, 329.331 286.781, 330.958 290.407 C 332.585 294.033, 335.477 301.163, 337.384 306.250 C 339.292 311.338, 341.317 316.719, 341.886 318.208 L 342.919 320.916 348.209 319.378 C 355.543 317.247, 372.572 309.044, 379.666 304.227 C 389.650 297.447, 396 289.198, 396 283.010 C 396 274.879, 385.892 264.409, 370.037 256.118 C 362.583 252.219, 344.668 245, 342.449 245 C 342.353 245, 340.794 249.162, 338.985 254.250 M 249.463 257.591 C 240.368 260.821, 233.288 269.814, 232.299 279.393 C 231.193 290.108, 235.246 298.980, 243.943 304.881 C 248.104 307.705, 250.084 308.345, 255.966 308.765 C 271.391 309.869, 283.378 299.951, 284.737 284.961 C 286.475 265.798, 267.599 251.152, 249.463 257.591 M 316.484 304.509 C 314.348 308.354, 310.225 315.438, 307.321 320.250 C 304.418 325.063, 302.546 329, 303.160 329 C 306.371 329, 328.629 324.751, 329.398 323.991 C 330.302 323.098, 326.925 312.482, 322.594 302.598 L 320.367 297.518 316.484 304.509 M 193.959 304.750 C 189.933 315.349, 187.001 324.334, 187.428 324.761 C 188.193 325.526, 210.450 329.073, 212.667 328.783 C 214.700 328.517, 214.526 328.007, 209.843 320.500 C 207.098 316.100, 203.305 309.462, 201.414 305.750 C 199.522 302.038, 197.563 299, 197.059 299 C 196.556 299, 195.161 301.587, 193.959 304.750 M 321.500 338.684 C 314.900 339.914, 306.052 341.224, 301.838 341.596 C 297.624 341.968, 293.797 342.549, 293.333 342.886 C 292.870 343.224, 289.301 347.775, 285.402 353 C 281.504 358.225, 276.009 365.195, 273.192 368.488 L 268.069 374.476 271.284 377.826 C 280.367 387.287, 295.845 397.459, 307.401 401.562 C 317.805 405.255, 324.582 404.767, 329.535 399.967 C 335.205 394.471, 337.245 387.615, 337.774 372.278 C 338.202 359.865, 336.209 340.708, 334.152 337.474 C 333.720 336.795, 329.445 337.204, 321.500 338.684 M 181.541 345.658 C 179.296 357.263, 178.479 375.887, 179.881 383.500 C 181.443 391.980, 185.693 399.841, 190 402.216 C 192.859 403.793, 194.783 404.050, 200.500 403.619 C 206.271 403.184, 209.258 402.219, 217.513 398.124 C 228.009 392.917, 237.587 386.420, 245.391 379.215 L 250.031 374.930 242.250 365.675 C 237.970 360.585, 232.255 353.406, 229.549 349.721 C 225.703 344.483, 223.961 342.922, 221.565 342.567 C 219.879 342.317, 211.750 341.173, 203.500 340.025 C 195.250 338.876, 187.319 337.684, 185.876 337.376 C 183.291 336.823, 183.227 336.946, 181.541 345.658 M 242.384 346.138 C 246.643 352.219, 258.354 365.049, 259.344 364.719 C 260.539 364.320, 273.468 348.771, 275.116 345.750 C 276.008 344.113, 274.930 344, 258.478 344 L 240.887 344 242.384 346.138 M 735.165 482.640 C 737.008 486.806, 737.057 487.838, 735.930 498.767 C 731.395 542.758, 748.583 593.298, 779 625.409 C 792.524 639.686, 807.094 651.368, 818.838 657.349 C 840.636 668.451, 859.041 672.916, 886.410 673.739 C 903.668 674.258, 904.295 674.209, 903.612 672.389 C 902.346 669.015, 896.666 660.104, 890.254 651.433 L 883.983 642.952 891.975 649.858 C 904.921 661.045, 913.315 663.792, 915.327 657.500 C 917.089 651.992, 916.650 618.497, 914.689 608.730 C 910.735 589.040, 902.233 569.502, 890.312 552.709 C 881.764 540.669, 865.331 524.625, 853.500 516.770 C 841.812 509.010, 820.313 498.429, 807.500 494.131 C 795.332 490.049, 780.846 487.230, 765.371 485.932 C 755.331 485.090, 750.377 484.119, 742.848 481.521 L 733.196 478.190 735.165 482.640 M 401 548.500 L 401 569 408.500 569 L 416 569 416 562 L 416 555 422 555 L 428 555 428 562 L 428 569 435 569 L 442 569 442 548.500 L 442 528 435 528 L 428 528 428 534.500 L 428 541 422 541 L 416 541 416 534.500 L 416 528 408.500 528 L 401 528 401 548.500 M 448 535 L 448 542 454 542 L 460 542 460 555.500 L 460 569 467 569 L 474 569 474 555.548 L 474 542.095 480.250 541.798 L 486.500 541.500 486.796 534.750 L 487.091 528 467.546 528 L 448 528 448 535 M 493 548.500 L 493 569 499.464 569 L 505.928 569 506.214 559.250 L 506.500 549.500 510.811 556 C 513.183 559.575, 515.518 562.500, 516 562.500 C 516.482 562.500, 518.817 559.575, 521.189 556 L 525.500 549.500 525.786 559.250 L 526.072 569 533.036 569 L 540 569 540 548.500 L 540 528 532.250 528.017 L 524.500 528.035 520.641 534.517 C 518.518 538.083, 516.474 541, 516.098 541 C 515.723 541, 513.704 538.075, 511.613 534.500 L 507.811 528 500.405 528 L 493 528 493 548.500 M 546 548.500 L 546 569 563 569 L 580 569 580 562 L 580 555 570.500 555 L 561 555 561 541.500 L 561 528 553.500 528 L 546 528 546 548.500 M 382 591.632 C 382 593.630, 386.275 643.153, 391.500 701.683 C 396.725 760.214, 401 808.873, 401 809.815 C 401 811.222, 408.953 813.727, 445.577 823.853 C 476.289 832.345, 490.985 835.983, 492.827 835.549 C 494.297 835.204, 514.513 829.670, 537.750 823.253 C 575.687 812.777, 580.005 811.378, 580.049 809.543 C 580.075 808.419, 584.508 758.450, 589.899 698.500 C 595.290 638.550, 599.516 589.163, 599.291 588.750 C 599.066 588.337, 550.084 588, 490.441 588 L 382 588 382 591.632 M 233.359 610.923 C 228.911 613.635, 228.188 615.355, 232.325 613.382 C 238.955 610.220, 245 614.160, 245 621.642 C 245 626.503, 243.817 629.661, 239.679 635.846 C 237.234 639.501, 237.092 640.021, 238.788 639.113 C 243.327 636.684, 250.928 624.328, 250.978 619.297 C 251.062 610.867, 241.165 606.163, 233.359 610.923 M 218 627.144 C 205.006 635.769, 177.366 649, 172.343 649 C 169.852 649, 170.975 646.595, 175.750 641.701 L 180.500 636.833 176.500 639.153 C 171.031 642.324, 161.670 651.527, 162.247 653.165 C 162.901 655.020, 169.030 654.486, 176.811 651.896 C 192.459 646.689, 221.997 629.611, 224.973 624.051 C 225.576 622.923, 225.942 622.037, 225.785 622.083 C 225.628 622.129, 222.125 624.406, 218 627.144 M 422 635.846 C 422 636.862, 423.575 655.188, 425.500 676.571 C 427.425 697.955, 429 715.799, 429 716.225 C 429 716.651, 450.368 717, 476.485 717 L 523.969 717 523.398 722.750 C 523.084 725.913, 522.303 733.863, 521.663 740.417 L 520.500 752.335 505.500 756.347 L 490.500 760.359 477.500 757.036 C 458.706 752.232, 460.323 753.334, 459.567 744.816 C 459.210 740.792, 458.672 735.813, 458.371 733.750 L 457.824 730 444.471 730 C 437.127 730, 430.934 730.337, 430.709 730.750 C 430.484 731.163, 431.102 739.825, 432.082 750 C 433.062 760.175, 433.895 769.659, 433.932 771.076 C 433.998 773.589, 434.683 773.842, 461.750 781.359 C 477.012 785.598, 490.214 789.051, 491.087 789.033 C 492.615 789.001, 546.189 774.144, 546.732 773.602 C 547.115 773.218, 554 696.183, 554 692.275 L 554 689 504.137 689 L 454.274 689 453.583 679.250 C 453.203 673.888, 452.634 667.813, 452.319 665.750 L 451.744 662 504.243 662 L 556.742 662 557.344 657.250 C 557.675 654.638, 558.248 648.337, 558.617 643.250 L 559.287 634 490.643 634 C 424.574 634, 422 634.069, 422 635.846 M 216 644.527 C 208.183 649.791, 192.246 657.023, 186.876 657.743 C 183.627 658.179, 183 657.974, 183 656.477 C 183 654.769, 182.912 654.770, 181 656.500 C 179.900 657.495, 179 659.365, 179 660.655 C 179 662.753, 179.455 663, 183.318 663 C 189.259 663, 196.918 660.568, 206.988 655.483 C 214.747 651.566, 230 641.617, 230 640.474 C 230 640.213, 228.313 640.034, 226.250 640.075 C 223.558 640.129, 220.667 641.384, 216 644.527 M 257.661 653.946 C 256.796 658.272, 245.070 666.168, 223.500 676.949 C 198.965 689.211, 177 696.246, 177 691.841 C 177 691.203, 179.137 688.684, 181.750 686.241 C 186.274 682.011, 186.337 681.882, 183.069 683.519 C 178.491 685.813, 170 694.636, 170 697.098 C 170 701.491, 175.161 700.729, 196 693.255 C 226.622 682.272, 260 661.290, 260 653.022 C 260 649.948, 258.328 650.608, 257.661 653.946 M 219.326 659.726 C 212.570 664.066, 198.586 670, 195.116 670 C 194.044 670, 192.982 669.447, 192.757 668.770 C 192.518 668.053, 191.568 668.729, 190.479 670.392 C 188.649 673.185, 188.651 673.272, 190.556 674.700 C 194.087 677.346, 208.433 673.949, 218.329 668.123 C 223.232 665.236, 233.863 656.954, 233.951 655.951 C 233.978 655.649, 232.179 655.424, 229.953 655.451 C 226.952 655.487, 224.204 656.593, 219.326 659.726 M 265.694 657.940 C 260.329 667.023, 228.507 686.179, 202.500 695.982 C 196.640 698.191, 195.570 698.831, 198.500 698.377 C 207.918 696.915, 236.963 683.851, 249.741 675.329 C 258.512 669.479, 266.815 661.583, 267.637 658.311 C 268.517 654.805, 267.645 654.639, 265.694 657.940 M 155 903.026 L 155 922.052 170.250 921.776 L 185.500 921.500 185.798 915.250 L 186.095 909 177.048 909 L 168 909 168 902.500 L 168 896 177 896 L 186 896 186 890 L 186 884 170.500 884 L 155 884 155 903.026 M 191 896 L 191 908 200 908 C 211.615 908, 211.822 909.829, 200.250 910.211 L 191.500 910.500 191.200 916.250 L 190.900 922 206.450 922 L 222 922 222 909.500 L 222 897 213.559 897 C 208.916 897, 204.840 896.550, 204.500 896 C 204.105 895.361, 207.156 895, 212.941 895 L 222 895 222 889.500 L 222 884 206.500 884 L 191 884 191 896 M 228 896 L 228 908 236.500 908 C 241.500 908, 245 908.412, 245 909 C 245 909.588, 241.500 910, 236.500 910 L 228 910 228 916 L 228 922 243 922 L 258 922 258 909.500 L 258 897 249.500 897 C 244.500 897, 241 896.588, 241 896 C 241 895.412, 244.500 895, 249.500 895 L 258 895 258 889.500 L 258 884 243 884 L 228 884 228 896 M 108.438 943.250 C 108.746 945.587, 112.873 991.375, 117.609 1045 C 122.345 1098.625, 126.287 1142.579, 126.370 1142.677 C 126.835 1143.224, 206.447 1165, 207.983 1165 C 209.615 1165, 235.950 1157.890, 276.750 1146.434 C 285.226 1144.054, 290 1142.236, 290 1141.387 C 290 1139.516, 306.805 950.639, 307.540 944.250 L 308.144 939 208.011 939 L 107.877 939 108.438 943.250 M 470.160 945.307 C 466.663 949.520, 464.918 966.817, 467.110 975.524 C 468.161 979.697, 468.061 980.137, 465.243 983.717 C 461.299 988.729, 458.559 994.271, 456.468 1001.463 C 455.083 1006.227, 454.853 1009.889, 455.278 1020.433 C 455.568 1027.620, 456.441 1035.797, 457.218 1038.604 L 458.632 1043.709 439.066 1044.321 C 421.300 1044.878, 400.445 1047.142, 399.053 1048.666 C 398.529 1049.239, 400.565 1049.029, 416 1046.914 C 419.575 1046.424, 430.553 1045.720, 440.395 1045.349 C 457.103 1044.720, 458.379 1044.798, 459.645 1046.529 C 460.390 1047.548, 461 1048.708, 461 1049.106 C 461 1049.504, 457.512 1050.113, 453.250 1050.459 C 433.191 1052.090, 415.130 1054.771, 405.143 1057.600 C 396.840 1059.953, 399.638 1060.209, 409.686 1058.016 C 423.478 1055.005, 437.263 1053.139, 450.500 1052.491 L 462.500 1051.903 465.564 1056.702 C 471.946 1066.695, 488.029 1075.697, 504.882 1078.708 C 509.622 1079.554, 514.098 1080.416, 514.829 1080.622 C 515.732 1080.878, 515.064 1082.276, 512.739 1084.991 C 510.859 1087.188, 508.803 1090.715, 508.169 1092.830 C 507.189 1096.101, 506.383 1096.885, 502.759 1098.087 C 500.416 1098.864, 495.542 1099.500, 491.927 1099.500 C 483.519 1099.500, 478.971 1096.679, 472.060 1087.178 C 466.478 1079.503, 459.646 1075, 453.583 1075 C 447.478 1075, 447.907 1077.367, 455.272 1084.323 C 460.149 1088.927, 462.845 1092.572, 465.864 1098.641 C 472.678 1112.342, 480.089 1116.422, 497.074 1115.821 L 506.147 1115.500 505.823 1129.173 C 505.516 1142.158, 505.374 1142.980, 503 1145.520 C 501.625 1146.991, 498.724 1149.105, 496.554 1150.218 C 492.778 1152.153, 492.692 1152.304, 494.554 1153.708 C 497.412 1155.863, 507.851 1154.873, 512.489 1152.007 C 519.188 1147.867, 519.444 1146.904, 520 1123.832 C 520.434 1105.810, 520.731 1102.835, 522.250 1101.319 C 523.917 1099.655, 524 1100.556, 524 1120.236 C 524 1144.419, 523.143 1149.729, 518.392 1154.988 C 516.526 1157.053, 515 1159.250, 515 1159.871 C 515 1160.553, 516.901 1161, 519.800 1161 C 525.534 1161, 531.309 1157.680, 535.041 1152.238 C 537.470 1148.695, 537.504 1148.348, 537.812 1123.326 C 538.112 1099.046, 538.205 1098, 540.062 1098 C 541.925 1098, 542 1098.922, 542 1121.804 C 542 1145.107, 542.052 1145.711, 544.468 1150.559 C 547.378 1156.400, 553.663 1161, 558.732 1161 C 563.277 1161, 563.829 1158.803, 560.492 1153.988 C 556.992 1148.937, 555.840 1138.629, 556.225 1115.799 C 556.478 1100.799, 556.620 1099.699, 558 1102 C 559.150 1103.916, 559.617 1109.215, 560 1124.679 C 560.455 1143.041, 560.686 1145.113, 562.565 1147.679 C 565.320 1151.445, 570.272 1153.780, 577.229 1154.598 C 582.185 1155.180, 583.052 1155.029, 583.646 1153.480 C 584.152 1152.162, 583.353 1150.902, 580.625 1148.714 C 574.294 1143.635, 574 1142.376, 574 1120.365 C 574 1097.500, 572.871 1091.546, 567.300 1085.038 C 564.951 1082.293, 564.268 1080.877, 565.171 1080.621 C 565.902 1080.413, 570.705 1079.491, 575.845 1078.572 C 593.361 1075.439, 604.831 1069.310, 612.388 1059.045 C 614.831 1055.727, 616.980 1052.575, 617.165 1052.041 C 617.912 1049.876, 660.861 1054.869, 673.765 1058.620 C 676.726 1059.481, 679.388 1059.945, 679.682 1059.652 C 681.437 1057.896, 652.379 1052.613, 632.041 1050.990 C 624.639 1050.400, 618.470 1049.803, 618.331 1049.664 C 618.193 1049.526, 618.357 1048.352, 618.696 1047.055 L 619.312 1044.698 638.406 1045.349 C 648.908 1045.707, 660.425 1046.406, 664 1046.902 C 678.979 1048.982, 681.473 1049.241, 680.947 1048.666 C 679.524 1047.109, 658.537 1044.868, 640.173 1044.312 C 620.150 1043.706, 619.855 1043.666, 620.419 1041.598 C 620.734 1040.444, 621.517 1034.236, 622.159 1027.803 C 624.132 1008.031, 620.851 994.114, 611.479 982.500 C 608.085 978.295, 607.548 977.023, 608.103 974.500 C 610.035 965.721, 607.953 948.563, 604.540 945.122 C 603.378 943.951, 602.115 943.983, 596.146 945.331 C 589.741 946.777, 576.209 952.797, 571.651 956.227 C 570.067 957.418, 568.844 957.404, 563.151 956.128 C 553.161 953.888, 525.917 954.007, 514.894 956.338 L 506.287 958.158 501.286 955.081 C 494.018 950.609, 484.279 946.407, 478.201 945.121 C 471.575 943.719, 471.476 943.722, 470.160 945.307 M 176.990 980.749 L 145.479 981.027 146.490 992.764 L 147.500 1004.500 181.500 1005.108 C 200.200 1005.443, 221.746 1005.781, 229.379 1005.858 L 243.258 1006 242.672 1011.750 C 242.349 1014.913, 241.789 1020.538, 241.426 1024.250 L 240.767 1031 195.267 1031 L 149.767 1031 150.426 1037.750 C 150.789 1041.463, 151.349 1047.088, 151.672 1050.250 L 152.258 1056 195.641 1056 L 239.024 1056 238.518 1059.750 C 237.875 1064.525, 236 1084.814, 236 1087.003 C 236 1089.178, 209.426 1096.561, 205.235 1095.549 C 203.731 1095.186, 197.468 1093.516, 191.318 1091.838 L 180.136 1088.788 179.528 1082.144 C 179.193 1078.490, 178.692 1074.037, 178.414 1072.250 L 177.909 1069 165.502 1069 L 153.094 1069 153.608 1073.750 C 153.891 1076.362, 154.712 1084.963, 155.432 1092.861 C 156.153 1100.760, 157.222 1107.519, 157.808 1107.882 C 158.395 1108.244, 169.953 1111.621, 183.494 1115.387 L 208.113 1122.233 232.806 1115.475 C 246.388 1111.758, 257.917 1108.341, 258.427 1107.881 C 259.359 1107.041, 270.992 982.152, 270.269 980.750 C 269.907 980.048, 256.375 980.048, 176.990 980.749 M 500.054 1009.100 C 490.237 1010.794, 482.573 1017.111, 478.334 1027 C 475.904 1032.669, 476.943 1047.158, 480.239 1053.563 C 483.388 1059.683, 489.514 1065.423, 495.830 1068.173 C 506.257 1072.713, 518.022 1074.323, 540.500 1074.286 C 578.958 1074.224, 590.779 1070.318, 598.215 1055.216 C 601.266 1049.019, 601.500 1047.830, 601.500 1038.522 C 601.500 1030.565, 601.108 1027.780, 599.599 1025.007 C 591.776 1010.636, 583.527 1007.497, 558 1009.180 C 545.360 1010.012, 521.832 1009.701, 509.500 1008.538 C 507.300 1008.330, 503.049 1008.583, 500.054 1009.100 M 501.656 1027.133 C 497.112 1029.774, 495.624 1040.231, 499.004 1045.775 C 503.043 1052.400, 509.527 1051.769, 512.584 1044.454 C 517.007 1033.867, 509.780 1022.410, 501.656 1027.133 M 570.674 1028.976 C 567.678 1032.536, 566.584 1036.831, 567.552 1041.235 C 570.516 1054.731, 584 1052.526, 584 1038.546 C 584 1027.837, 576.290 1022.301, 570.674 1028.976 M 536.718 1053.250 C 536.093 1054.995, 537.798 1058, 539.413 1058 C 541.402 1058, 543.124 1055.488, 542.410 1053.627 C 541.678 1051.718, 537.370 1051.432, 536.718 1053.250 M 532 1063 C 532 1065.259, 536.112 1068, 539.500 1068 C 542.888 1068, 547 1065.259, 547 1063 C 547 1061.403, 545.584 1061.837, 543.732 1064 C 542.790 1065.100, 540.886 1066, 539.500 1066 C 538.114 1066, 536.210 1065.100, 535.268 1064 C 533.416 1061.837, 532 1061.403, 532 1063 M 369.741 1178.429 C 364.848 1180.175, 363.265 1181.561, 360.927 1186.143 C 358.284 1191.325, 358.455 1198.305, 361.379 1204.500 C 362.677 1207.250, 367.968 1215.125, 373.137 1222 C 382.342 1234.243, 382.636 1234.806, 387.462 1249.422 C 393.159 1266.676, 401.110 1283.396, 406.921 1290.342 C 410.045 1294.076, 410.760 1295.580, 410.045 1296.915 C 409.536 1297.868, 407.683 1304.239, 405.928 1311.073 C 398.263 1340.932, 402.272 1370.667, 416.079 1386.353 C 422.789 1393.975, 429.905 1396.258, 435.509 1392.586 C 439.596 1389.908, 440.868 1386.921, 442.584 1375.969 C 443.487 1370.211, 444.584 1364.840, 445.023 1364.034 C 445.590 1362.992, 447.128 1365.233, 450.335 1371.771 C 456.064 1383.455, 461.679 1390.577, 472.593 1400 C 477.371 1404.125, 484.131 1410.088, 487.615 1413.250 C 491.099 1416.412, 494.260 1419, 494.639 1419 C 495.018 1419, 492.415 1415.963, 488.854 1412.250 C 481.029 1404.090, 471.529 1390.532, 462.672 1374.878 C 456.071 1363.212, 447.937 1345.886, 446.651 1340.750 C 446.272 1339.237, 445.551 1338, 445.048 1338 C 443.412 1338, 437.118 1346.501, 434.468 1352.290 C 432.684 1356.187, 431.375 1361.827, 430.251 1370.470 C 429.159 1378.856, 428.212 1383, 427.387 1383 C 422.257 1383, 415.100 1369.251, 412.516 1354.429 C 409.712 1338.350, 410.895 1324.799, 416.529 1308.484 C 421.492 1294.110, 421.227 1291.395, 414.173 1284.317 C 409.351 1279.479, 404.299 1269.077, 399.079 1253.240 C 392.719 1233.945, 390.294 1228.865, 382.663 1218.851 C 372.870 1206.002, 369.093 1200.011, 368.377 1196.198 C 367.804 1193.143, 368.089 1192.320, 370.411 1190.323 C 373.710 1187.485, 374.483 1187.468, 382.171 1190.058 C 390.897 1192.997, 400.464 1198.032, 408.177 1203.745 L 414.854 1208.690 425.774 1209.354 C 438.731 1210.141, 444.429 1211.694, 456.488 1217.728 C 492.231 1235.613, 525.442 1270.419, 538.807 1304 C 540.449 1308.125, 544.134 1316.450, 546.997 1322.500 C 549.859 1328.550, 554.592 1338.737, 557.514 1345.137 C 563.644 1358.565, 569.915 1368.899, 573.131 1370.873 C 574.361 1371.629, 580.768 1374.027, 587.368 1376.202 C 593.968 1378.377, 601.873 1381.437, 604.934 1383 C 611.954 1386.587, 640.207 1406.122, 640.757 1407.770 C 641.058 1408.673, 639.105 1409, 633.415 1409 C 629.152 1409, 622.702 1409.484, 619.082 1410.076 C 609.937 1411.572, 593.973 1416.907, 593.286 1418.697 C 592.566 1420.573, 595.186 1426.115, 599.704 1432.274 C 604.271 1438.501, 618.851 1448.891, 631.543 1454.965 C 641.621 1459.787, 656.122 1468.976, 661.240 1473.781 C 662.746 1475.196, 664.244 1476.089, 664.568 1475.766 C 665.745 1474.588, 662.294 1469.932, 652.306 1459.221 C 642.616 1448.830, 639.621 1446.458, 621.369 1434.726 C 617.446 1432.205, 613.281 1428.800, 612.113 1427.159 L 609.990 1424.177 620.815 1421.588 C 626.769 1420.165, 632.937 1419, 634.522 1419 C 639.468 1419, 655 1414.778, 655 1413.434 C 655 1410.788, 645.264 1400.420, 635.598 1392.774 C 619.889 1380.346, 607.559 1372.598, 594.500 1366.948 C 587.900 1364.093, 581.551 1360.893, 580.391 1359.837 C 578.417 1358.040, 557.484 1314.656, 549.677 1296.181 C 545.118 1285.396, 541.495 1279.474, 530.384 1264.657 C 516.185 1245.722, 496.721 1228.030, 474.327 1213.701 C 459.015 1203.904, 445.886 1199.286, 429.963 1198.096 C 420.487 1197.387, 420.386 1197.351, 413.957 1192.441 C 403.462 1184.426, 385.219 1176.919, 376.540 1177.044 C 374.868 1177.068, 371.808 1177.691, 369.741 1178.429 M 420.607 1229.827 C 420.326 1230.281, 421.773 1232.682, 423.822 1235.162 C 425.871 1237.641, 428.393 1241.544, 429.426 1243.835 C 431.572 1248.594, 432.375 1248.904, 434.396 1245.750 C 439.023 1238.529, 433.667 1229, 424.982 1229 C 422.857 1229, 420.888 1229.372, 420.607 1229.827" stroke="none" fill="#fafaf6" fill-rule="evenodd"/></svg>